<svg width="145" height="40" viewBox="0 0 145 40" fill="none" xmlns="http://www.w3.org/2000/svg">
<rect x="0.5" y="4.5" width="144" height="32" rx="15.5" fill="white" stroke="black"/>
<mask id="path-3-outside-1_54_91" maskUnits="userSpaceOnUse" x="15" y="10" width="115" height="23" fill="black">
<rect fill="white" x="15" y="10" width="115" height="23"/>
<path d="M20.2939 27.1705C19.5978 27.1705 18.9823 27.0568 18.4473 26.8295C17.917 26.5975 17.5003 26.2472 17.1973 25.7784C16.8942 25.3097 16.7427 24.7131 16.7427 23.9886C16.7427 23.392 16.8445 22.883 17.0481 22.4616C17.2517 22.0355 17.5358 21.6875 17.9004 21.4176C18.265 21.1477 18.6887 20.9418 19.1717 20.7997C19.6594 20.6577 20.185 20.5653 20.7484 20.5227C21.3592 20.4754 21.8493 20.4186 22.2186 20.3523C22.5926 20.2812 22.8625 20.1842 23.0282 20.0611C23.194 19.9332 23.2768 19.7652 23.2768 19.5568V19.5284C23.2768 19.2443 23.1679 19.0265 22.9501 18.875C22.7323 18.7235 22.4529 18.6477 22.112 18.6477C21.738 18.6477 21.4326 18.7306 21.1958 18.8963C20.9638 19.0573 20.8242 19.3059 20.7768 19.642H17.1689C17.2162 18.9792 17.4269 18.3684 17.801 17.8097C18.1797 17.2462 18.7314 16.7964 19.4558 16.4602C20.1802 16.1193 21.0846 15.9489 22.1689 15.9489C22.9501 15.9489 23.6509 16.0412 24.2711 16.2259C24.8914 16.4058 25.4193 16.6591 25.8549 16.9858C26.2905 17.3078 26.622 17.6866 26.8493 18.1222C27.0813 18.553 27.1973 19.0218 27.1973 19.5284V27H23.5325V25.4659H23.4473C23.2295 25.8731 22.9643 26.2022 22.6518 26.4531C22.344 26.7041 21.9913 26.8864 21.5936 27C21.2006 27.1136 20.7673 27.1705 20.2939 27.1705ZM21.5723 24.6989C21.8706 24.6989 22.1499 24.6373 22.4103 24.5142C22.6755 24.3911 22.8909 24.2135 23.0566 23.9815C23.2224 23.7495 23.3052 23.4678 23.3052 23.1364V22.2273C23.2011 22.2699 23.0898 22.3101 22.9714 22.348C22.8578 22.3859 22.7347 22.4214 22.6021 22.4545C22.4743 22.4877 22.3369 22.5185 22.1902 22.5469C22.0481 22.5753 21.899 22.6013 21.7427 22.625C21.4397 22.6723 21.1911 22.7505 20.997 22.8594C20.8076 22.9635 20.6655 23.0938 20.5708 23.25C20.4809 23.4015 20.4359 23.572 20.4359 23.7614C20.4359 24.0644 20.5424 24.2964 20.7555 24.4574C20.9686 24.6184 21.2408 24.6989 21.5723 24.6989ZM34.3262 31.3182C33.2324 31.3182 32.2949 31.1619 31.5137 30.8494C30.7372 30.5417 30.1335 30.1155 29.7026 29.571C29.2765 29.0313 29.0373 28.411 28.9853 27.7102H32.7637C32.8016 27.9422 32.8962 28.1293 33.0478 28.2713C33.1993 28.4134 33.3934 28.5152 33.6301 28.5767C33.8716 28.643 34.1415 28.6761 34.4398 28.6761C34.9464 28.6761 35.3655 28.553 35.6969 28.3068C36.0331 28.0606 36.2012 27.6155 36.2012 26.9716V25.125H36.0875C35.9455 25.4943 35.7277 25.8092 35.4341 26.0696C35.1406 26.3253 34.7878 26.5218 34.3759 26.6591C33.964 26.7917 33.5118 26.858 33.0194 26.858C32.2428 26.858 31.5279 26.678 30.8745 26.3182C30.2258 25.9583 29.705 25.3878 29.312 24.6065C28.9237 23.8253 28.7296 22.8049 28.7296 21.5455C28.7296 20.2292 28.9332 19.1591 29.3404 18.3352C29.7523 17.5114 30.2826 16.9077 30.9313 16.5241C31.5847 16.1406 32.2712 15.9489 32.9909 15.9489C33.5307 15.9489 34.0042 16.0436 34.4114 16.233C34.8186 16.4176 35.1595 16.6662 35.4341 16.9787C35.7087 17.2865 35.9171 17.625 36.0591 17.9943H36.1444V16.0909H40.0648V26.9716C40.0648 27.8949 39.8257 28.6785 39.3475 29.3224C38.874 29.9711 38.2064 30.4659 37.3446 30.8068C36.4829 31.1477 35.4767 31.3182 34.3262 31.3182ZM34.4682 24.0739C34.8281 24.0739 35.1358 23.9744 35.3915 23.7756C35.6519 23.572 35.8508 23.2831 35.9881 22.9091C36.1301 22.5303 36.2012 22.0758 36.2012 21.5455C36.2012 21.0057 36.1301 20.544 35.9881 20.1605C35.8508 19.7723 35.6519 19.4763 35.3915 19.2727C35.1358 19.0644 34.8281 18.9602 34.4682 18.9602C34.1084 18.9602 33.8006 19.0644 33.5449 19.2727C33.294 19.4763 33.0998 19.7723 32.9625 20.1605C32.83 20.544 32.7637 21.0057 32.7637 21.5455C32.7637 22.0852 32.83 22.5445 32.9625 22.9233C33.0998 23.2973 33.294 23.5838 33.5449 23.7827C33.8006 23.9768 34.1084 24.0739 34.4682 24.0739ZM42.0588 27V16.0909H45.8656V18.1648H45.9792C46.1781 17.3977 46.493 16.8366 46.9238 16.4815C47.3594 16.1264 47.8684 15.9489 48.4508 15.9489C48.6213 15.9489 48.7894 15.9631 48.9551 15.9915C49.1255 16.0152 49.2889 16.0507 49.4451 16.098V19.4432C49.251 19.3769 49.0119 19.3272 48.7278 19.294C48.4437 19.2609 48.1999 19.2443 47.9963 19.2443C47.6127 19.2443 47.2671 19.3319 46.9593 19.5071C46.6563 19.6776 46.4172 19.919 46.242 20.2315C46.0668 20.5393 45.9792 20.9015 45.9792 21.3182V27H42.0588ZM50.7306 27V16.0909H54.6511V27H50.7306ZM52.6909 14.9545C52.1606 14.9545 51.706 14.7794 51.3272 14.429C50.9484 14.0786 50.7591 13.6572 50.7591 13.1648C50.7591 12.6723 50.9484 12.2509 51.3272 11.9006C51.706 11.5502 52.1606 11.375 52.6909 11.375C53.2259 11.375 53.6805 11.5502 54.0545 11.9006C54.4333 12.2509 54.6227 12.6723 54.6227 13.1648C54.6227 13.6572 54.4333 14.0786 54.0545 14.429C53.6805 14.7794 53.2259 14.9545 52.6909 14.9545ZM61.9043 27.1989C60.7206 27.1989 59.7073 26.9645 58.8645 26.4957C58.0217 26.0223 57.3754 25.3641 56.9256 24.5213C56.4758 23.6738 56.2509 22.6913 56.2509 21.5739C56.2509 20.4564 56.4758 19.4763 56.9256 18.6335C57.3754 17.786 58.0217 17.1278 58.8645 16.6591C59.7073 16.1856 60.7206 15.9489 61.9043 15.9489C62.9744 15.9489 63.9 16.143 64.6813 16.5312C65.4673 16.9148 66.0757 17.4593 66.5066 18.1648C66.9374 18.8655 67.1552 19.6894 67.16 20.6364H63.5236C63.4715 20.0634 63.3058 19.6278 63.0265 19.3295C62.7518 19.0265 62.3967 18.875 61.9611 18.875C61.6202 18.875 61.3219 18.9744 61.0662 19.1733C60.8105 19.3674 60.6117 19.6634 60.4696 20.0611C60.3276 20.4541 60.2566 20.9489 60.2566 21.5455C60.2566 22.142 60.3276 22.6392 60.4696 23.0369C60.6117 23.4299 60.8105 23.7259 61.0662 23.9247C61.3219 24.1188 61.6202 24.2159 61.9611 24.2159C62.2499 24.2159 62.5056 24.1496 62.7282 24.017C62.9507 23.8797 63.1306 23.6809 63.2679 23.4205C63.41 23.1553 63.4952 22.8333 63.5236 22.4545H67.16C67.1458 23.4157 66.9256 24.2538 66.4995 24.9688C66.0733 25.679 65.4696 26.2282 64.6884 26.6165C63.9119 27.0047 62.9838 27.1989 61.9043 27.1989ZM71.8173 27.1705C71.1213 27.1705 70.5057 27.0568 69.9707 26.8295C69.4404 26.5975 69.0237 26.2472 68.7207 25.7784C68.4177 25.3097 68.2662 24.7131 68.2662 23.9886C68.2662 23.392 68.368 22.883 68.5716 22.4616C68.7752 22.0355 69.0592 21.6875 69.4238 21.4176C69.7884 21.1477 70.2122 20.9418 70.6951 20.7997C71.1828 20.6577 71.7084 20.5653 72.2718 20.5227C72.8826 20.4754 73.3727 20.4186 73.742 20.3523C74.1161 20.2812 74.3859 20.1842 74.5517 20.0611C74.7174 19.9332 74.8002 19.7652 74.8002 19.5568V19.5284C74.8002 19.2443 74.6913 19.0265 74.4735 18.875C74.2557 18.7235 73.9764 18.6477 73.6355 18.6477C73.2614 18.6477 72.956 18.7306 72.7193 18.8963C72.4873 19.0573 72.3476 19.3059 72.3002 19.642H68.6923C68.7396 18.9792 68.9503 18.3684 69.3244 17.8097C69.7032 17.2462 70.2548 16.7964 70.9792 16.4602C71.7037 16.1193 72.608 15.9489 73.6923 15.9489C74.4735 15.9489 75.1743 16.0412 75.7946 16.2259C76.4148 16.4058 76.9428 16.6591 77.3784 16.9858C77.814 17.3078 78.1454 17.6866 78.3727 18.1222C78.6047 18.553 78.7207 19.0218 78.7207 19.5284V27H75.0559V25.4659H74.9707C74.7529 25.8731 74.4877 26.2022 74.1752 26.4531C73.8675 26.7041 73.5147 26.8864 73.117 27C72.724 27.1136 72.2908 27.1705 71.8173 27.1705ZM73.0957 24.6989C73.394 24.6989 73.6734 24.6373 73.9338 24.5142C74.1989 24.3911 74.4144 24.2135 74.5801 23.9815C74.7458 23.7495 74.8287 23.4678 74.8287 23.1364V22.2273C74.7245 22.2699 74.6132 22.3101 74.4949 22.348C74.3812 22.3859 74.2581 22.4214 74.1255 22.4545C73.9977 22.4877 73.8604 22.5185 73.7136 22.5469C73.5716 22.5753 73.4224 22.6013 73.2662 22.625C72.9631 22.6723 72.7145 22.7505 72.5204 22.8594C72.331 22.9635 72.189 23.0938 72.0943 23.25C72.0043 23.4015 71.9593 23.572 71.9593 23.7614C71.9593 24.0644 72.0659 24.2964 72.2789 24.4574C72.492 24.6184 72.7643 24.6989 73.0957 24.6989ZM80.7076 27V24.8409L85.4803 19.1307V19.0739H80.878V16.0909H90.111V18.4773L85.7644 23.9602V24.017H90.2814V27H80.7076ZM97.3926 27.1989C96.2089 27.1989 95.1956 26.9645 94.3528 26.4957C93.51 26.0223 92.8637 25.3641 92.4139 24.5213C91.9641 23.6738 91.7392 22.6913 91.7392 21.5739C91.7392 20.4564 91.9641 19.4763 92.4139 18.6335C92.8637 17.786 93.51 17.1278 94.3528 16.6591C95.1956 16.1856 96.2089 15.9489 97.3926 15.9489C98.5763 15.9489 99.5895 16.1856 100.432 16.6591C101.275 17.1278 101.921 17.786 102.371 18.6335C102.821 19.4763 103.046 20.4564 103.046 21.5739C103.046 22.6913 102.821 23.6738 102.371 24.5213C101.921 25.3641 101.275 26.0223 100.432 26.4957C99.5895 26.9645 98.5763 27.1989 97.3926 27.1989ZM97.421 24.3011C97.7524 24.3011 98.0389 24.1899 98.2804 23.9673C98.5218 23.7448 98.7089 23.4276 98.8414 23.0156C98.974 22.6037 99.0403 22.1136 99.0403 21.5455C99.0403 20.9725 98.974 20.4825 98.8414 20.0753C98.7089 19.6634 98.5218 19.3461 98.2804 19.1236C98.0389 18.901 97.7524 18.7898 97.421 18.7898C97.0706 18.7898 96.7699 18.901 96.519 19.1236C96.2681 19.3461 96.0763 19.6634 95.9437 20.0753C95.8111 20.4825 95.7449 20.9725 95.7449 21.5455C95.7449 22.1136 95.8111 22.6037 95.9437 23.0156C96.0763 23.4276 96.2681 23.7448 96.519 23.9673C96.7699 24.1899 97.0706 24.3011 97.421 24.3011ZM108.557 20.8636V27H104.637V16.0909H108.358V18.1648H108.472C108.709 17.4735 109.126 16.9313 109.722 16.5384C110.323 16.1454 111.024 15.9489 111.824 15.9489C112.596 15.9489 113.266 16.1264 113.834 16.4815C114.407 16.8319 114.85 17.3149 115.162 17.9304C115.48 18.5459 115.636 19.2491 115.631 20.0398V27H111.711V20.8636C111.715 20.3239 111.578 19.9001 111.299 19.5923C111.024 19.2846 110.641 19.1307 110.148 19.1307C109.826 19.1307 109.545 19.2017 109.303 19.3438C109.066 19.4811 108.884 19.6799 108.756 19.9403C108.628 20.196 108.562 20.5038 108.557 20.8636ZM122.794 27.1989C121.629 27.1989 120.625 26.9763 119.782 26.5312C118.944 26.0814 118.298 25.4375 117.844 24.5994C117.394 23.7566 117.169 22.7481 117.169 21.5739C117.169 20.447 117.396 19.4621 117.851 18.6193C118.305 17.7765 118.947 17.1207 119.775 16.652C120.604 16.1832 121.582 15.9489 122.709 15.9489C123.532 15.9489 124.278 16.0767 124.946 16.3324C125.613 16.5881 126.184 16.9598 126.657 17.4474C127.131 17.9304 127.496 18.5175 127.751 19.2088C128.007 19.9001 128.135 20.679 128.135 21.5455V22.4545H118.39V20.2955H124.527C124.522 19.983 124.442 19.7083 124.285 19.4716C124.134 19.2301 123.928 19.0431 123.667 18.9105C123.412 18.7732 123.121 18.7045 122.794 18.7045C122.477 18.7045 122.185 18.7732 121.92 18.9105C121.655 19.0431 121.442 19.2277 121.281 19.4645C121.125 19.7012 121.042 19.9782 121.032 20.2955V22.625C121.032 22.9754 121.106 23.2879 121.253 23.5625C121.399 23.8371 121.61 24.0526 121.885 24.2088C122.159 24.3651 122.491 24.4432 122.879 24.4432C123.149 24.4432 123.395 24.4053 123.618 24.3295C123.845 24.2538 124.039 24.1449 124.2 24.0028C124.361 23.8561 124.479 23.6809 124.555 23.4773H128.135C128.012 24.2348 127.72 24.893 127.261 25.4517C126.802 26.0057 126.193 26.4366 125.436 26.7443C124.683 27.0473 123.802 27.1989 122.794 27.1989Z"/>
</mask>
<g filter="url(#filter0_i_54_91)">
<path d="M20.2939 27.1705C19.5978 27.1705 18.9823 27.0568 18.4473 26.8295C17.917 26.5975 17.5003 26.2472 17.1973 25.7784C16.8942 25.3097 16.7427 24.7131 16.7427 23.9886C16.7427 23.392 16.8445 22.883 17.0481 22.4616C17.2517 22.0355 17.5358 21.6875 17.9004 21.4176C18.265 21.1477 18.6887 20.9418 19.1717 20.7997C19.6594 20.6577 20.185 20.5653 20.7484 20.5227C21.3592 20.4754 21.8493 20.4186 22.2186 20.3523C22.5926 20.2812 22.8625 20.1842 23.0282 20.0611C23.194 19.9332 23.2768 19.7652 23.2768 19.5568V19.5284C23.2768 19.2443 23.1679 19.0265 22.9501 18.875C22.7323 18.7235 22.4529 18.6477 22.112 18.6477C21.738 18.6477 21.4326 18.7306 21.1958 18.8963C20.9638 19.0573 20.8242 19.3059 20.7768 19.642H17.1689C17.2162 18.9792 17.4269 18.3684 17.801 17.8097C18.1797 17.2462 18.7314 16.7964 19.4558 16.4602C20.1802 16.1193 21.0846 15.9489 22.1689 15.9489C22.9501 15.9489 23.6509 16.0412 24.2711 16.2259C24.8914 16.4058 25.4193 16.6591 25.8549 16.9858C26.2905 17.3078 26.622 17.6866 26.8493 18.1222C27.0813 18.553 27.1973 19.0218 27.1973 19.5284V27H23.5325V25.4659H23.4473C23.2295 25.8731 22.9643 26.2022 22.6518 26.4531C22.344 26.7041 21.9913 26.8864 21.5936 27C21.2006 27.1136 20.7673 27.1705 20.2939 27.1705ZM21.5723 24.6989C21.8706 24.6989 22.1499 24.6373 22.4103 24.5142C22.6755 24.3911 22.8909 24.2135 23.0566 23.9815C23.2224 23.7495 23.3052 23.4678 23.3052 23.1364V22.2273C23.2011 22.2699 23.0898 22.3101 22.9714 22.348C22.8578 22.3859 22.7347 22.4214 22.6021 22.4545C22.4743 22.4877 22.3369 22.5185 22.1902 22.5469C22.0481 22.5753 21.899 22.6013 21.7427 22.625C21.4397 22.6723 21.1911 22.7505 20.997 22.8594C20.8076 22.9635 20.6655 23.0938 20.5708 23.25C20.4809 23.4015 20.4359 23.572 20.4359 23.7614C20.4359 24.0644 20.5424 24.2964 20.7555 24.4574C20.9686 24.6184 21.2408 24.6989 21.5723 24.6989ZM34.3262 31.3182C33.2324 31.3182 32.2949 31.1619 31.5137 30.8494C30.7372 30.5417 30.1335 30.1155 29.7026 29.571C29.2765 29.0313 29.0373 28.411 28.9853 27.7102H32.7637C32.8016 27.9422 32.8962 28.1293 33.0478 28.2713C33.1993 28.4134 33.3934 28.5152 33.6301 28.5767C33.8716 28.643 34.1415 28.6761 34.4398 28.6761C34.9464 28.6761 35.3655 28.553 35.6969 28.3068C36.0331 28.0606 36.2012 27.6155 36.2012 26.9716V25.125H36.0875C35.9455 25.4943 35.7277 25.8092 35.4341 26.0696C35.1406 26.3253 34.7878 26.5218 34.3759 26.6591C33.964 26.7917 33.5118 26.858 33.0194 26.858C32.2428 26.858 31.5279 26.678 30.8745 26.3182C30.2258 25.9583 29.705 25.3878 29.312 24.6065C28.9237 23.8253 28.7296 22.8049 28.7296 21.5455C28.7296 20.2292 28.9332 19.1591 29.3404 18.3352C29.7523 17.5114 30.2826 16.9077 30.9313 16.5241C31.5847 16.1406 32.2712 15.9489 32.9909 15.9489C33.5307 15.9489 34.0042 16.0436 34.4114 16.233C34.8186 16.4176 35.1595 16.6662 35.4341 16.9787C35.7087 17.2865 35.9171 17.625 36.0591 17.9943H36.1444V16.0909H40.0648V26.9716C40.0648 27.8949 39.8257 28.6785 39.3475 29.3224C38.874 29.9711 38.2064 30.4659 37.3446 30.8068C36.4829 31.1477 35.4767 31.3182 34.3262 31.3182ZM34.4682 24.0739C34.8281 24.0739 35.1358 23.9744 35.3915 23.7756C35.6519 23.572 35.8508 23.2831 35.9881 22.9091C36.1301 22.5303 36.2012 22.0758 36.2012 21.5455C36.2012 21.0057 36.1301 20.544 35.9881 20.1605C35.8508 19.7723 35.6519 19.4763 35.3915 19.2727C35.1358 19.0644 34.8281 18.9602 34.4682 18.9602C34.1084 18.9602 33.8006 19.0644 33.5449 19.2727C33.294 19.4763 33.0998 19.7723 32.9625 20.1605C32.83 20.544 32.7637 21.0057 32.7637 21.5455C32.7637 22.0852 32.83 22.5445 32.9625 22.9233C33.0998 23.2973 33.294 23.5838 33.5449 23.7827C33.8006 23.9768 34.1084 24.0739 34.4682 24.0739ZM42.0588 27V16.0909H45.8656V18.1648H45.9792C46.1781 17.3977 46.493 16.8366 46.9238 16.4815C47.3594 16.1264 47.8684 15.9489 48.4508 15.9489C48.6213 15.9489 48.7894 15.9631 48.9551 15.9915C49.1255 16.0152 49.2889 16.0507 49.4451 16.098V19.4432C49.251 19.3769 49.0119 19.3272 48.7278 19.294C48.4437 19.2609 48.1999 19.2443 47.9963 19.2443C47.6127 19.2443 47.2671 19.3319 46.9593 19.5071C46.6563 19.6776 46.4172 19.919 46.242 20.2315C46.0668 20.5393 45.9792 20.9015 45.9792 21.3182V27H42.0588ZM50.7306 27V16.0909H54.6511V27H50.7306ZM52.6909 14.9545C52.1606 14.9545 51.706 14.7794 51.3272 14.429C50.9484 14.0786 50.7591 13.6572 50.7591 13.1648C50.7591 12.6723 50.9484 12.2509 51.3272 11.9006C51.706 11.5502 52.1606 11.375 52.6909 11.375C53.2259 11.375 53.6805 11.5502 54.0545 11.9006C54.4333 12.2509 54.6227 12.6723 54.6227 13.1648C54.6227 13.6572 54.4333 14.0786 54.0545 14.429C53.6805 14.7794 53.2259 14.9545 52.6909 14.9545ZM61.9043 27.1989C60.7206 27.1989 59.7073 26.9645 58.8645 26.4957C58.0217 26.0223 57.3754 25.3641 56.9256 24.5213C56.4758 23.6738 56.2509 22.6913 56.2509 21.5739C56.2509 20.4564 56.4758 19.4763 56.9256 18.6335C57.3754 17.786 58.0217 17.1278 58.8645 16.6591C59.7073 16.1856 60.7206 15.9489 61.9043 15.9489C62.9744 15.9489 63.9 16.143 64.6813 16.5312C65.4673 16.9148 66.0757 17.4593 66.5066 18.1648C66.9374 18.8655 67.1552 19.6894 67.16 20.6364H63.5236C63.4715 20.0634 63.3058 19.6278 63.0265 19.3295C62.7518 19.0265 62.3967 18.875 61.9611 18.875C61.6202 18.875 61.3219 18.9744 61.0662 19.1733C60.8105 19.3674 60.6117 19.6634 60.4696 20.0611C60.3276 20.4541 60.2566 20.9489 60.2566 21.5455C60.2566 22.142 60.3276 22.6392 60.4696 23.0369C60.6117 23.4299 60.8105 23.7259 61.0662 23.9247C61.3219 24.1188 61.6202 24.2159 61.9611 24.2159C62.2499 24.2159 62.5056 24.1496 62.7282 24.017C62.9507 23.8797 63.1306 23.6809 63.2679 23.4205C63.41 23.1553 63.4952 22.8333 63.5236 22.4545H67.16C67.1458 23.4157 66.9256 24.2538 66.4995 24.9688C66.0733 25.679 65.4696 26.2282 64.6884 26.6165C63.9119 27.0047 62.9838 27.1989 61.9043 27.1989ZM71.8173 27.1705C71.1213 27.1705 70.5057 27.0568 69.9707 26.8295C69.4404 26.5975 69.0237 26.2472 68.7207 25.7784C68.4177 25.3097 68.2662 24.7131 68.2662 23.9886C68.2662 23.392 68.368 22.883 68.5716 22.4616C68.7752 22.0355 69.0592 21.6875 69.4238 21.4176C69.7884 21.1477 70.2122 20.9418 70.6951 20.7997C71.1828 20.6577 71.7084 20.5653 72.2718 20.5227C72.8826 20.4754 73.3727 20.4186 73.742 20.3523C74.1161 20.2812 74.3859 20.1842 74.5517 20.0611C74.7174 19.9332 74.8002 19.7652 74.8002 19.5568V19.5284C74.8002 19.2443 74.6913 19.0265 74.4735 18.875C74.2557 18.7235 73.9764 18.6477 73.6355 18.6477C73.2614 18.6477 72.956 18.7306 72.7193 18.8963C72.4873 19.0573 72.3476 19.3059 72.3002 19.642H68.6923C68.7396 18.9792 68.9503 18.3684 69.3244 17.8097C69.7032 17.2462 70.2548 16.7964 70.9792 16.4602C71.7037 16.1193 72.608 15.9489 73.6923 15.9489C74.4735 15.9489 75.1743 16.0412 75.7946 16.2259C76.4148 16.4058 76.9428 16.6591 77.3784 16.9858C77.814 17.3078 78.1454 17.6866 78.3727 18.1222C78.6047 18.553 78.7207 19.0218 78.7207 19.5284V27H75.0559V25.4659H74.9707C74.7529 25.8731 74.4877 26.2022 74.1752 26.4531C73.8675 26.7041 73.5147 26.8864 73.117 27C72.724 27.1136 72.2908 27.1705 71.8173 27.1705ZM73.0957 24.6989C73.394 24.6989 73.6734 24.6373 73.9338 24.5142C74.1989 24.3911 74.4144 24.2135 74.5801 23.9815C74.7458 23.7495 74.8287 23.4678 74.8287 23.1364V22.2273C74.7245 22.2699 74.6132 22.3101 74.4949 22.348C74.3812 22.3859 74.2581 22.4214 74.1255 22.4545C73.9977 22.4877 73.8604 22.5185 73.7136 22.5469C73.5716 22.5753 73.4224 22.6013 73.2662 22.625C72.9631 22.6723 72.7145 22.7505 72.5204 22.8594C72.331 22.9635 72.189 23.0938 72.0943 23.25C72.0043 23.4015 71.9593 23.572 71.9593 23.7614C71.9593 24.0644 72.0659 24.2964 72.2789 24.4574C72.492 24.6184 72.7643 24.6989 73.0957 24.6989ZM80.7076 27V24.8409L85.4803 19.1307V19.0739H80.878V16.0909H90.111V18.4773L85.7644 23.9602V24.017H90.2814V27H80.7076ZM97.3926 27.1989C96.2089 27.1989 95.1956 26.9645 94.3528 26.4957C93.51 26.0223 92.8637 25.3641 92.4139 24.5213C91.9641 23.6738 91.7392 22.6913 91.7392 21.5739C91.7392 20.4564 91.9641 19.4763 92.4139 18.6335C92.8637 17.786 93.51 17.1278 94.3528 16.6591C95.1956 16.1856 96.2089 15.9489 97.3926 15.9489C98.5763 15.9489 99.5895 16.1856 100.432 16.6591C101.275 17.1278 101.921 17.786 102.371 18.6335C102.821 19.4763 103.046 20.4564 103.046 21.5739C103.046 22.6913 102.821 23.6738 102.371 24.5213C101.921 25.3641 101.275 26.0223 100.432 26.4957C99.5895 26.9645 98.5763 27.1989 97.3926 27.1989ZM97.421 24.3011C97.7524 24.3011 98.0389 24.1899 98.2804 23.9673C98.5218 23.7448 98.7089 23.4276 98.8414 23.0156C98.974 22.6037 99.0403 22.1136 99.0403 21.5455C99.0403 20.9725 98.974 20.4825 98.8414 20.0753C98.7089 19.6634 98.5218 19.3461 98.2804 19.1236C98.0389 18.901 97.7524 18.7898 97.421 18.7898C97.0706 18.7898 96.7699 18.901 96.519 19.1236C96.2681 19.3461 96.0763 19.6634 95.9437 20.0753C95.8111 20.4825 95.7449 20.9725 95.7449 21.5455C95.7449 22.1136 95.8111 22.6037 95.9437 23.0156C96.0763 23.4276 96.2681 23.7448 96.519 23.9673C96.7699 24.1899 97.0706 24.3011 97.421 24.3011ZM108.557 20.8636V27H104.637V16.0909H108.358V18.1648H108.472C108.709 17.4735 109.126 16.9313 109.722 16.5384C110.323 16.1454 111.024 15.9489 111.824 15.9489C112.596 15.9489 113.266 16.1264 113.834 16.4815C114.407 16.8319 114.85 17.3149 115.162 17.9304C115.48 18.5459 115.636 19.2491 115.631 20.0398V27H111.711V20.8636C111.715 20.3239 111.578 19.9001 111.299 19.5923C111.024 19.2846 110.641 19.1307 110.148 19.1307C109.826 19.1307 109.545 19.2017 109.303 19.3438C109.066 19.4811 108.884 19.6799 108.756 19.9403C108.628 20.196 108.562 20.5038 108.557 20.8636ZM122.794 27.1989C121.629 27.1989 120.625 26.9763 119.782 26.5312C118.944 26.0814 118.298 25.4375 117.844 24.5994C117.394 23.7566 117.169 22.7481 117.169 21.5739C117.169 20.447 117.396 19.4621 117.851 18.6193C118.305 17.7765 118.947 17.1207 119.775 16.652C120.604 16.1832 121.582 15.9489 122.709 15.9489C123.532 15.9489 124.278 16.0767 124.946 16.3324C125.613 16.5881 126.184 16.9598 126.657 17.4474C127.131 17.9304 127.496 18.5175 127.751 19.2088C128.007 19.9001 128.135 20.679 128.135 21.5455V22.4545H118.39V20.2955H124.527C124.522 19.983 124.442 19.7083 124.285 19.4716C124.134 19.2301 123.928 19.0431 123.667 18.9105C123.412 18.7732 123.121 18.7045 122.794 18.7045C122.477 18.7045 122.185 18.7732 121.92 18.9105C121.655 19.0431 121.442 19.2277 121.281 19.4645C121.125 19.7012 121.042 19.9782 121.032 20.2955V22.625C121.032 22.9754 121.106 23.2879 121.253 23.5625C121.399 23.8371 121.61 24.0526 121.885 24.2088C122.159 24.3651 122.491 24.4432 122.879 24.4432C123.149 24.4432 123.395 24.4053 123.618 24.3295C123.845 24.2538 124.039 24.1449 124.2 24.0028C124.361 23.8561 124.479 23.6809 124.555 23.4773H128.135C128.012 24.2348 127.72 24.893 127.261 25.4517C126.802 26.0057 126.193 26.4366 125.436 26.7443C124.683 27.0473 123.802 27.1989 122.794 27.1989Z" fill="#36A793"/>
</g>
<path d="M18.4473 26.8295L18.0464 27.7458L18.0563 27.75L18.4473 26.8295ZM17.1973 25.7784L16.3575 26.3213L17.1973 25.7784ZM17.0481 22.4616L17.9485 22.8967L17.9504 22.8927L17.0481 22.4616ZM17.9004 21.4176L18.4954 22.2214L18.4954 22.2214L17.9004 21.4176ZM19.1717 20.7997L18.8921 19.8396L18.8895 19.8404L19.1717 20.7997ZM20.7484 20.5227L20.8238 21.5199L20.8257 21.5197L20.7484 20.5227ZM22.2186 20.3523L22.3952 21.3366L22.4051 21.3347L22.2186 20.3523ZM23.0282 20.0611L23.6246 20.8638L23.6318 20.8584L23.639 20.8529L23.0282 20.0611ZM22.9501 18.875L22.379 19.6959L22.379 19.6959L22.9501 18.875ZM21.1958 18.8963L21.7659 19.7179L21.7693 19.7155L21.1958 18.8963ZM20.7768 19.642V20.642H21.6458L21.767 19.7815L20.7768 19.642ZM17.1689 19.642L16.1714 19.5708L16.0949 20.642H17.1689V19.642ZM17.801 17.8097L16.9711 17.2517L16.97 17.2533L17.801 17.8097ZM19.4558 16.4602L19.8767 17.3673L19.8816 17.365L19.4558 16.4602ZM24.2711 16.2259L23.9858 17.1843L23.9925 17.1863L24.2711 16.2259ZM25.8549 16.9858L25.2549 17.7858L25.2605 17.79L25.8549 16.9858ZM26.8493 18.1222L25.9626 18.5848L25.9688 18.5963L26.8493 18.1222ZM27.1973 27V28H28.1973V27H27.1973ZM23.5325 27H22.5325V28H23.5325V27ZM23.5325 25.4659H24.5325V24.4659H23.5325V25.4659ZM23.4473 25.4659V24.4659H22.8481L22.5655 24.9943L23.4473 25.4659ZM22.6518 26.4531L22.0257 25.6734L22.0199 25.6781L22.6518 26.4531ZM21.5936 27L21.3189 26.0385L21.3158 26.0394L21.5936 27ZM22.4103 24.5142L21.9892 23.6072L21.983 23.6101L22.4103 24.5142ZM23.0566 23.9815L22.2429 23.4003L22.2429 23.4003L23.0566 23.9815ZM23.3052 22.2273H24.3052V20.7377L22.9266 21.3017L23.3052 22.2273ZM22.9714 22.348L22.6666 21.3955L22.6552 21.3993L22.9714 22.348ZM22.6021 22.4545L22.3595 21.4844L22.3511 21.4865L22.6021 22.4545ZM22.1902 22.5469L22.0001 21.5651L21.994 21.5663L22.1902 22.5469ZM21.7427 22.625L21.5929 21.6363L21.5883 21.637L21.7427 22.625ZM20.997 22.8594L21.4789 23.7356L21.4862 23.7315L20.997 22.8594ZM20.5708 23.25L19.7156 22.7317L19.711 22.7395L20.5708 23.25ZM20.7555 24.4574L21.3583 23.6595H21.3583L20.7555 24.4574ZM20.2939 26.1705C19.7062 26.1705 19.2278 26.0746 18.8382 25.9091L18.0563 27.75C18.7369 28.039 19.4895 28.1705 20.2939 28.1705V26.1705ZM18.8481 25.9134C18.4905 25.757 18.2295 25.5331 18.0371 25.2355L16.3575 26.3213C16.7711 26.9612 17.3434 27.4381 18.0464 27.7457L18.8481 25.9134ZM18.0371 25.2355C17.8656 24.9703 17.7427 24.577 17.7427 23.9886H15.7427C15.7427 24.8491 15.9229 25.6491 16.3575 26.3213L18.0371 25.2355ZM17.7427 23.9886C17.7427 23.5026 17.8259 23.1504 17.9485 22.8967L16.1477 22.0266C15.8631 22.6157 15.7427 23.2815 15.7427 23.9886H17.7427ZM17.9504 22.8927C18.0866 22.6078 18.2676 22.3899 18.4954 22.2214L17.3054 20.6139C16.804 20.9851 16.4169 21.4632 16.1458 22.0305L17.9504 22.8927ZM18.4954 22.2214C18.7558 22.0285 19.0712 21.8716 19.4539 21.7591L18.8895 19.8404C18.3063 20.0119 17.7741 20.2669 17.3054 20.6139L18.4954 22.2214ZM19.4513 21.7598C19.8655 21.6392 20.3219 21.5578 20.8238 21.5199L20.673 19.5256C20.048 19.5728 19.4533 19.6761 18.8921 19.8396L19.4513 21.7598ZM20.8257 21.5197C21.4518 21.4712 21.9791 21.4112 22.3952 21.3365L22.0419 19.368C21.7194 19.4259 21.2666 19.4796 20.6711 19.5257L20.8257 21.5197ZM22.4051 21.3347C22.8227 21.2554 23.274 21.1242 23.6246 20.8638L22.4319 19.2583C22.4517 19.2436 22.4388 19.258 22.3631 19.2852C22.2906 19.3113 22.183 19.3412 22.032 19.3698L22.4051 21.3347ZM23.639 20.8529C24.0489 20.5367 24.2768 20.0768 24.2768 19.5568H22.2768C22.2768 19.525 22.2841 19.4652 22.3177 19.397C22.3513 19.3289 22.3937 19.2876 22.4174 19.2693L23.639 20.8529ZM24.2768 19.5568V19.5284H22.2768V19.5568H24.2768ZM24.2768 19.5284C24.2768 18.9443 24.0294 18.4076 23.5212 18.0541L22.379 19.6959C22.3632 19.6849 22.3277 19.6531 22.3007 19.5992C22.275 19.5479 22.2768 19.5158 22.2768 19.5284H24.2768ZM23.5212 18.0541C23.0937 17.7567 22.5991 17.6477 22.112 17.6477V19.6477C22.3068 19.6477 22.3709 19.6902 22.379 19.6959L23.5212 18.0541ZM22.112 17.6477C21.5929 17.6477 21.0705 17.7634 20.6224 18.0771L21.7693 19.7155C21.7947 19.6978 21.883 19.6477 22.112 19.6477V17.6477ZM20.6258 18.0747C20.119 18.4263 19.8643 18.9509 19.7866 19.5026L21.767 19.7815C21.7766 19.7136 21.7904 19.6907 21.7889 19.6933C21.7882 19.6946 21.7852 19.6994 21.7797 19.7055C21.7741 19.7116 21.7689 19.7158 21.7659 19.7179L20.6258 18.0747ZM20.7768 18.642H17.1689V20.642H20.7768V18.642ZM18.1663 19.7133C18.2011 19.226 18.3534 18.782 18.6319 18.366L16.97 17.2533C16.5004 17.9547 16.2313 18.7324 16.1714 19.5708L18.1663 19.7133ZM18.6309 18.3676C18.891 17.9806 19.2884 17.6403 19.8767 17.3673L19.0349 15.5531C18.1743 15.9525 17.4685 16.5118 16.9711 17.2517L18.6309 18.3676ZM19.8816 17.365C20.4344 17.1049 21.1824 16.9489 22.1689 16.9489V14.9489C20.9868 14.9489 19.9261 15.1337 19.03 15.5554L19.8816 17.365ZM22.1689 16.9489C22.8728 16.9489 23.475 17.0322 23.9858 17.1843L24.5565 15.2674C23.8268 15.0502 23.0274 14.9489 22.1689 14.9489V16.9489ZM23.9925 17.1863C24.518 17.3387 24.932 17.5436 25.2549 17.7858L26.4549 16.1858C25.9066 15.7746 25.2648 15.4729 24.5497 15.2654L23.9925 17.1863ZM25.2605 17.79C25.5868 18.0311 25.8125 18.297 25.9627 18.5847L27.7358 17.6596C27.4314 17.0761 26.9943 16.5844 26.4493 16.1816L25.2605 17.79ZM25.9688 18.5963C26.1195 18.8762 26.1973 19.1812 26.1973 19.5284H28.1973C28.1973 18.8624 28.043 18.2299 27.7297 17.6481L25.9688 18.5963ZM26.1973 19.5284V27H28.1973V19.5284H26.1973ZM27.1973 26H23.5325V28H27.1973V26ZM24.5325 27V25.4659H22.5325V27H24.5325ZM23.5325 24.4659H23.4473V26.4659H23.5325V24.4659ZM22.5655 24.9943C22.4017 25.3005 22.2183 25.5187 22.0257 25.6734L23.2779 27.2328C23.7103 26.8856 24.0573 26.4457 24.3291 25.9376L22.5655 24.9943ZM22.0199 25.6781C21.8217 25.8397 21.5916 25.9605 21.3189 26.0385L21.8683 27.9615C22.391 27.8122 22.8664 27.5684 23.2837 27.2281L22.0199 25.6781ZM21.3158 26.0394C21.026 26.1232 20.6878 26.1705 20.2939 26.1705V28.1705C20.8469 28.1705 21.3752 28.1041 21.8713 27.9606L21.3158 26.0394ZM21.5723 25.6989C22.013 25.6989 22.4389 25.6068 22.8377 25.4183L21.983 23.6101C21.861 23.6678 21.7282 23.6989 21.5723 23.6989V25.6989ZM22.8314 25.4212C23.2493 25.2272 23.6015 24.9392 23.8704 24.5628L22.2429 23.4003C22.1803 23.4879 22.1017 23.555 21.9892 23.6072L22.8314 25.4212ZM23.8704 24.5628C24.1761 24.1348 24.3052 23.6413 24.3052 23.1364H22.3052C22.3052 23.2943 22.2686 23.3643 22.2429 23.4003L23.8704 24.5628ZM24.3052 23.1364V22.2273H22.3052V23.1364H24.3052ZM22.9266 21.3017C22.849 21.3335 22.7626 21.3649 22.6666 21.3956L23.2762 23.3004C23.417 23.2554 23.5531 23.2063 23.6839 23.1528L22.9266 21.3017ZM22.6552 21.3993C22.5689 21.4281 22.4707 21.4566 22.3596 21.4844L22.8446 23.4247C22.9987 23.3862 23.1466 23.3437 23.2876 23.2967L22.6552 21.3993ZM22.3511 21.4865C22.2459 21.5138 22.1291 21.5401 22.0001 21.5651L22.3802 23.5287C22.5448 23.4968 22.7026 23.4615 22.8531 23.4225L22.3511 21.4865ZM21.994 21.5663C21.8687 21.5914 21.735 21.6147 21.5929 21.6363L21.8925 23.6137C22.0629 23.5879 22.2276 23.5592 22.3863 23.5275L21.994 21.5663ZM21.5883 21.637C21.209 21.6963 20.8368 21.8026 20.5077 21.9872L21.4862 23.7315C21.5454 23.6983 21.6704 23.6484 21.8971 23.613L21.5883 21.637ZM20.5151 21.9832C20.2003 22.1563 19.9166 22.4001 19.7156 22.7317L21.426 23.7683C21.4216 23.7756 21.4192 23.7768 21.4241 23.7723C21.4297 23.7672 21.4458 23.7538 21.4789 23.7356L20.5151 21.9832ZM19.711 22.7395C19.5224 23.057 19.4359 23.4062 19.4359 23.7614H21.4359C21.4359 23.7464 21.4376 23.7427 21.4365 23.7466C21.4361 23.7483 21.4353 23.7508 21.4341 23.7537C21.4329 23.7566 21.4316 23.759 21.4307 23.7605L19.711 22.7395ZM19.4359 23.7614C19.4359 24.3297 19.6533 24.878 20.1527 25.2553L21.3583 23.6595C21.3658 23.6651 21.378 23.6758 21.3915 23.6924C21.4051 23.7091 21.4164 23.7274 21.4246 23.7453C21.4416 23.7824 21.4359 23.7954 21.4359 23.7614H19.4359ZM20.1527 25.2553C20.5776 25.5763 21.0767 25.6989 21.5723 25.6989V23.6989C21.405 23.6989 21.3595 23.6604 21.3583 23.6595L20.1527 25.2553ZM31.5137 30.8494L31.8851 29.9209L31.8821 29.9198L31.5137 30.8494ZM29.7026 29.571L28.9177 30.1907L28.9184 30.1916L29.7026 29.571ZM28.9853 27.7102V26.7102H27.9082L27.988 27.7843L28.9853 27.7102ZM32.7637 27.7102L33.7506 27.5491L33.6136 26.7102H32.7637V27.7102ZM33.0478 28.2713L32.3638 29.0008V29.0008L33.0478 28.2713ZM33.6301 28.5767L33.8949 27.6123L33.8818 27.6089L33.6301 28.5767ZM35.6969 28.3068L35.106 27.5L35.1006 27.5041L35.6969 28.3068ZM36.2012 25.125H37.2012V24.125H36.2012V25.125ZM36.0875 25.125V24.125H35.4007L35.1542 24.766L36.0875 25.125ZM35.4341 26.0696L36.0909 26.8237L36.0977 26.8177L35.4341 26.0696ZM34.3759 26.6591L34.6823 27.6111L34.6921 27.6078L34.3759 26.6591ZM30.8745 26.3182L30.3894 27.1926L30.3921 27.1941L30.8745 26.3182ZM29.312 24.6065L28.4164 25.0516L28.4186 25.0559L29.312 24.6065ZM29.3404 18.3352L28.4459 17.888L28.4439 17.8921L29.3404 18.3352ZM30.9313 16.5241L30.4251 15.6617L30.4223 15.6633L30.9313 16.5241ZM34.4114 16.233L33.9897 17.1397L33.9984 17.1437L34.4114 16.233ZM35.4341 16.9787L34.6829 17.6388L34.688 17.6445L35.4341 16.9787ZM36.0591 17.9943L35.1258 18.3533L35.3723 18.9943H36.0591V17.9943ZM36.1444 17.9943V18.9943H37.1444V17.9943H36.1444ZM36.1444 16.0909V15.0909H35.1444V16.0909H36.1444ZM40.0648 16.0909H41.0648V15.0909H40.0648V16.0909ZM39.3475 29.3224L38.5446 28.7262L38.5398 28.7329L39.3475 29.3224ZM37.3446 30.8068L37.7125 31.7367H37.7125L37.3446 30.8068ZM35.3915 23.7756L36.0055 24.5649L36.0074 24.5634L35.3915 23.7756ZM35.9881 22.9091L35.0518 22.558L35.0494 22.5645L35.9881 22.9091ZM35.9881 20.1605L35.0453 20.4939L35.0478 20.5009L35.0504 20.5078L35.9881 20.1605ZM35.3915 19.2727L34.7598 20.048L34.7677 20.0543L34.7756 20.0605L35.3915 19.2727ZM33.5449 19.2727L34.175 20.0493L34.1766 20.048L33.5449 19.2727ZM32.9625 20.1605L32.0197 19.8271L32.0174 19.8338L32.9625 20.1605ZM32.9625 22.9233L32.0187 23.2536L32.0212 23.2608L32.0238 23.2679L32.9625 22.9233ZM33.5449 23.7827L32.9238 24.5664L32.932 24.5729L32.9402 24.5791L33.5449 23.7827ZM34.3262 30.3182C33.3233 30.3182 32.5186 30.1744 31.8851 29.921L31.1423 31.7779C32.0712 32.1495 33.1415 32.3182 34.3262 32.3182V30.3182ZM31.8821 29.9198C31.2358 29.6636 30.7884 29.3317 30.4868 28.9505L28.9184 30.1916C29.4785 30.8993 30.2385 31.4197 31.1452 31.7791L31.8821 29.9198ZM30.4875 28.9514C30.1878 28.5718 30.0202 28.1425 29.9825 27.6361L27.988 27.7843C28.0545 28.6794 28.3651 29.4907 28.9177 30.1907L30.4875 28.9514ZM28.9853 28.7102H32.7637V26.7102H28.9853V28.7102ZM31.7767 27.8714C31.8452 28.2909 32.0304 28.6883 32.3638 29.0008L33.7317 27.5418C33.736 27.5458 33.7408 27.5511 33.7455 27.5573C33.7501 27.5634 33.7533 27.5689 33.7553 27.5728C33.7572 27.5766 33.7572 27.5774 33.7562 27.5742C33.7551 27.5708 33.7528 27.5628 33.7506 27.5491L31.7767 27.8714ZM32.3638 29.0008C32.6573 29.276 33.0088 29.4484 33.3785 29.5445L33.8818 27.6089C33.778 27.5819 33.7413 27.5507 33.7317 27.5418L32.3638 29.0008ZM33.3654 29.541C33.7077 29.635 34.0686 29.6761 34.4398 29.6761V27.6761C34.2144 27.6761 34.0355 27.651 33.8949 27.6124L33.3654 29.541ZM34.4398 29.6761C35.1115 29.6761 35.7533 29.5107 36.2932 29.1096L35.1006 27.5041C34.9776 27.5954 34.7814 27.6761 34.4398 27.6761V29.6761ZM36.2878 29.1136C36.9975 28.5938 37.2012 27.7556 37.2012 26.9716H35.2012C35.2012 27.2128 35.1689 27.3576 35.1396 27.435C35.1258 27.4715 35.1142 27.4893 35.1096 27.4956C35.1073 27.4988 35.106 27.5001 35.1059 27.5002C35.1058 27.5003 35.1058 27.5003 35.1059 27.5002C35.106 27.5001 35.1061 27.5 35.106 27.5001L36.2878 29.1136ZM37.2012 26.9716V25.125H35.2012V26.9716H37.2012ZM36.2012 24.125H36.0875V26.125H36.2012V24.125ZM35.1542 24.766C35.0691 24.9872 34.9433 25.1683 34.7705 25.3215L36.0977 26.8177C36.5121 26.4501 36.8219 26.0014 37.0209 25.484L35.1542 24.766ZM34.7773 25.3155C34.5942 25.475 34.3608 25.61 34.0597 25.7104L34.6921 27.6078C35.2148 27.4335 35.6869 27.1756 36.0909 26.8237L34.7773 25.3155ZM34.0695 25.7072C33.7692 25.8038 33.4219 25.858 33.0194 25.858V27.858C33.6017 27.858 34.1587 27.7795 34.6823 27.611L34.0695 25.7072ZM33.0194 25.858C32.4044 25.858 31.8564 25.7173 31.3569 25.4422L30.3921 27.1941C31.1994 27.6388 32.0813 27.858 33.0194 27.858V25.858ZM31.3596 25.4437C30.9162 25.1978 30.5245 24.7918 30.2053 24.1572L28.4186 25.0559C28.8854 25.9838 29.5354 26.7189 30.3894 27.1926L31.3596 25.4437ZM30.2075 24.1615C29.9115 23.566 29.7296 22.7141 29.7296 21.5455H27.7296C27.7296 22.8957 27.9359 24.0845 28.4165 25.0516L30.2075 24.1615ZM29.7296 21.5455C29.7296 20.321 29.9207 19.418 30.2369 18.7783L28.4439 17.8921C27.9457 18.9002 27.7296 20.1373 27.7296 21.5455H29.7296ZM30.2348 18.7824C30.5799 18.0922 30.9907 17.6508 31.4402 17.3849L30.4223 15.6633C29.5746 16.1646 28.9247 16.9305 28.4459 17.888L30.2348 18.7824ZM31.4375 17.3866C31.9458 17.0882 32.4587 16.9489 32.9909 16.9489V14.9489C32.0838 14.9489 31.2236 15.1931 30.4251 15.6617L31.4375 17.3866ZM32.9909 16.9489C33.414 16.9489 33.7385 17.0229 33.9897 17.1397L34.8331 15.3262C34.2699 15.0643 33.6474 14.9489 32.9909 14.9489V16.9489ZM33.9984 17.1437C34.2862 17.2742 34.5089 17.4407 34.683 17.6388L36.1853 16.3186C35.8102 15.8917 35.351 15.561 34.8244 15.3222L33.9984 17.1437ZM34.688 17.6445C34.8856 17.866 35.0289 18.1015 35.1258 18.3533L36.9925 17.6353C36.8052 17.1485 36.5318 16.7069 36.1803 16.3129L34.688 17.6445ZM36.0591 18.9943H36.1444V16.9943H36.0591V18.9943ZM37.1444 17.9943V16.0909H35.1444V17.9943H37.1444ZM36.1444 17.0909H40.0648V15.0909H36.1444V17.0909ZM39.0648 16.0909V26.9716H41.0648V16.0909H39.0648ZM39.0648 26.9716C39.0648 27.7139 38.8761 28.28 38.5447 28.7262L40.1503 29.9187C40.7753 29.077 41.0648 28.0759 41.0648 26.9716H39.0648ZM38.5398 28.7329C38.1941 29.2064 37.6903 29.5947 36.9768 29.8769L37.7125 31.7367C38.7224 31.3372 39.5539 30.7358 40.1552 29.912L38.5398 28.7329ZM36.9768 29.8769C36.2567 30.1618 35.3802 30.3182 34.3262 30.3182V32.3182C35.5733 32.3182 36.7091 32.1336 37.7125 31.7367L36.9768 29.8769ZM34.4682 25.0739C35.0244 25.0739 35.5547 24.9155 36.0055 24.5649L34.7776 22.9862C34.717 23.0334 34.6318 23.0739 34.4682 23.0739V25.0739ZM36.0074 24.5634C36.4423 24.2234 36.7386 23.7665 36.9269 23.2537L35.0494 22.5645C34.963 22.7998 34.8616 22.9205 34.7756 22.9878L36.0074 24.5634ZM36.9244 23.2602C37.1194 22.7403 37.2012 22.1604 37.2012 21.5455H35.2012C35.2012 21.9911 35.1409 22.3203 35.0518 22.558L36.9244 23.2602ZM37.2012 21.5455C37.2012 20.9229 37.1199 20.3371 36.9259 19.8132L35.0504 20.5078C35.1404 20.751 35.2012 21.0885 35.2012 21.5455H37.2012ZM36.9309 19.8271C36.7457 19.3034 36.4508 18.8316 36.0074 18.4849L34.7756 20.0605C34.853 20.1211 34.9559 20.2411 35.0453 20.4939L36.9309 19.8271ZM36.0232 18.4975C35.5725 18.1302 35.0358 17.9602 34.4682 17.9602V19.9602C34.6203 19.9602 34.6992 19.9986 34.7598 20.048L36.0232 18.4975ZM34.4682 17.9602C33.9006 17.9602 33.364 18.1302 32.9132 18.4975L34.1766 20.048C34.2372 19.9986 34.3161 19.9602 34.4682 19.9602V17.9602ZM32.9149 18.4962C32.4865 18.8437 32.2019 19.3122 32.0198 19.8271L33.9053 20.4939C33.9978 20.2323 34.1014 20.1089 34.175 20.0493L32.9149 18.4962ZM32.0174 19.8338C31.8387 20.3507 31.7637 20.9289 31.7637 21.5455H33.7637C33.7637 21.0824 33.8212 20.7374 33.9077 20.4872L32.0174 19.8338ZM31.7637 21.5455C31.7637 22.1614 31.8386 22.7391 32.0187 23.2536L33.9064 22.5929C33.8213 22.3499 33.7637 22.009 33.7637 21.5455H31.7637ZM32.0238 23.2679C32.2091 23.7728 32.4971 24.2283 32.9238 24.5664L34.166 22.9989C34.0908 22.9393 33.9906 22.8219 33.9013 22.5787L32.0238 23.2679ZM32.9402 24.5791C33.3907 24.9212 33.9177 25.0739 34.4682 25.0739V23.0739C34.299 23.0739 34.2105 23.0324 34.1496 22.9862L32.9402 24.5791ZM42.0588 27H41.0588V28H42.0588V27ZM42.0588 16.0909V15.0909H41.0588V16.0909H42.0588ZM45.8656 16.0909H46.8656V15.0909H45.8656V16.0909ZM45.8656 18.1648H44.8656V19.1648H45.8656V18.1648ZM45.9792 18.1648V19.1648H46.753L46.9472 18.4157L45.9792 18.1648ZM46.9238 16.4815L46.292 15.7064L46.2878 15.7098L46.9238 16.4815ZM48.9551 15.9915L48.7861 16.9771L48.8018 16.9798L48.8175 16.982L48.9551 15.9915ZM49.4451 16.098H50.4451V15.3561L49.7351 15.141L49.4451 16.098ZM49.4451 19.4432L49.122 20.3895L50.4451 20.8413V19.4432H49.4451ZM48.7278 19.294L48.8437 18.3008H48.8437L48.7278 19.294ZM46.9593 19.5071L47.4496 20.3787L47.454 20.3762L46.9593 19.5071ZM46.242 20.2315L47.1111 20.7262L47.1143 20.7205L46.242 20.2315ZM45.9792 27V28H46.9792V27H45.9792ZM43.0588 27V16.0909H41.0588V27H43.0588ZM42.0588 17.0909H45.8656V15.0909H42.0588V17.0909ZM44.8656 16.0909V18.1648H46.8656V16.0909H44.8656ZM45.8656 19.1648H45.9792V17.1648H45.8656V19.1648ZM46.9472 18.4157C47.1146 17.7701 47.3473 17.4284 47.5598 17.2532L46.2878 15.7098C45.6386 16.2449 45.2416 17.0253 45.0112 17.9138L46.9472 18.4157ZM47.5557 17.2566C47.806 17.0526 48.0896 16.9489 48.4508 16.9489V14.9489C47.6472 14.9489 46.9129 15.2002 46.292 15.7065L47.5557 17.2566ZM48.4508 16.9489C48.5654 16.9489 48.677 16.9584 48.7861 16.9771L49.124 15.0059C48.9017 14.9677 48.6771 14.9489 48.4508 14.9489V16.9489ZM48.8175 16.982C48.9391 16.9989 49.0513 17.0236 49.1551 17.055L49.7351 15.141C49.5264 15.0777 49.3119 15.0314 49.0926 15.001L48.8175 16.982ZM48.4451 16.098V19.4432H50.4451V16.098H48.4451ZM49.7683 18.4968C49.4864 18.4006 49.173 18.3392 48.8437 18.3008L48.6119 20.2873C48.8508 20.3152 49.0156 20.3532 49.122 20.3895L49.7683 18.4968ZM48.8437 18.3008C48.5352 18.2648 48.2506 18.2443 47.9963 18.2443V20.2443C48.1492 20.2443 48.3522 20.257 48.6119 20.2873L48.8437 18.3008ZM47.9963 18.2443C47.4541 18.2443 46.9355 18.37 46.4646 18.638L47.454 20.3762C47.5987 20.2938 47.7714 20.2443 47.9963 20.2443V18.2443ZM46.4691 18.6355C46.001 18.8988 45.6318 19.275 45.3697 19.7425L47.1143 20.7205C47.2026 20.5631 47.3117 20.4563 47.4496 20.3787L46.4691 18.6355ZM45.3729 19.7368C45.0979 20.22 44.9792 20.7589 44.9792 21.3182H46.9792C46.9792 21.0442 47.0358 20.8586 47.1111 20.7262L45.3729 19.7368ZM44.9792 21.3182V27H46.9792V21.3182H44.9792ZM45.9792 26H42.0588V28H45.9792V26ZM50.7306 27H49.7306V28H50.7306V27ZM50.7306 16.0909V15.0909H49.7306V16.0909H50.7306ZM54.6511 16.0909H55.6511V15.0909H54.6511V16.0909ZM54.6511 27V28H55.6511V27H54.6511ZM51.3272 14.429L50.6482 15.1631L50.6482 15.1631L51.3272 14.429ZM51.3272 11.9006L50.6482 11.1665L50.6482 11.1665L51.3272 11.9006ZM54.0545 11.9006L53.3709 12.6304L53.3755 12.6347L54.0545 11.9006ZM54.0545 14.429L53.3755 13.6949L53.3709 13.6992L54.0545 14.429ZM51.7306 27V16.0909H49.7306V27H51.7306ZM50.7306 17.0909H54.6511V15.0909H50.7306V17.0909ZM53.6511 16.0909V27H55.6511V16.0909H53.6511ZM54.6511 26H50.7306V28H54.6511V26ZM52.6909 13.9545C52.4046 13.9545 52.1947 13.8691 52.0063 13.6949L50.6482 15.1631C51.2174 15.6896 51.9165 15.9545 52.6909 15.9545V13.9545ZM52.0063 13.6949C51.8211 13.5236 51.7591 13.3638 51.7591 13.1648H49.7591C49.7591 13.9506 50.0758 14.6336 50.6482 15.1631L52.0063 13.6949ZM51.7591 13.1648C51.7591 12.9658 51.8211 12.806 52.0063 12.6347L50.6482 11.1665C50.0758 11.6959 49.7591 12.3789 49.7591 13.1648H51.7591ZM52.0063 12.6347C52.1947 12.4604 52.4046 12.375 52.6909 12.375V10.375C51.9165 10.375 51.2174 10.64 50.6482 11.1665L52.0063 12.6347ZM52.6909 12.375C52.9843 12.375 53.1909 12.4618 53.3709 12.6304L54.7381 11.1707C54.17 10.6385 53.4675 10.375 52.6909 10.375V12.375ZM53.3755 12.6347C53.5607 12.806 53.6227 12.9658 53.6227 13.1648H55.6227C55.6227 12.3789 55.3059 11.6959 54.7336 11.1665L53.3755 12.6347ZM53.6227 13.1648C53.6227 13.3638 53.5607 13.5236 53.3755 13.6949L54.7336 15.1631C55.3059 14.6336 55.6227 13.9506 55.6227 13.1648H53.6227ZM53.3709 13.6992C53.1909 13.8677 52.9843 13.9545 52.6909 13.9545V15.9545C53.4675 15.9545 54.17 15.691 54.7381 15.1588L53.3709 13.6992ZM58.8645 26.4957L58.3747 27.3676L58.3785 27.3697L58.8645 26.4957ZM56.9256 24.5213L56.0423 24.9901L56.0434 24.9922L56.9256 24.5213ZM56.9256 18.6335L57.8078 19.1044L57.8089 19.1023L56.9256 18.6335ZM58.8645 16.6591L59.3506 17.533L59.3543 17.5309L58.8645 16.6591ZM64.6813 16.5312L64.2362 17.4268L64.2428 17.43L64.6813 16.5312ZM66.5066 18.1648L65.6531 18.686L65.6547 18.6885L66.5066 18.1648ZM67.16 20.6364V21.6364H68.165L68.16 20.6314L67.16 20.6364ZM63.5236 20.6364L62.5277 20.7269L62.6104 21.6364H63.5236V20.6364ZM63.0265 19.3295L62.2855 20.0011L62.291 20.0071L62.2966 20.0131L63.0265 19.3295ZM61.0662 19.1733L61.671 19.9698L61.6802 19.9626L61.0662 19.1733ZM60.4696 20.0611L61.4101 20.401L61.4114 20.3974L60.4696 20.0611ZM60.4696 23.0369L59.5279 23.3733L59.5292 23.3769L60.4696 23.0369ZM61.0662 23.9247L60.4522 24.7141L60.4615 24.7212L61.0662 23.9247ZM62.7282 24.017L63.24 24.8761L63.2466 24.8722L63.2533 24.8681L62.7282 24.017ZM63.2679 23.4205L62.3864 22.9482L62.3834 22.954L63.2679 23.4205ZM63.5236 22.4545V21.4545H62.5958L62.5264 22.3798L63.5236 22.4545ZM67.16 22.4545L68.1599 22.4693L68.1749 21.4545H67.16V22.4545ZM66.4995 24.9688L67.357 25.4832L67.3585 25.4807L66.4995 24.9688ZM64.6884 26.6165L64.2433 25.721L64.2412 25.722L64.6884 26.6165ZM61.9043 26.1989C60.8524 26.1989 60.0145 25.9911 59.3506 25.6218L58.3785 27.3697C59.4002 27.9379 60.5888 28.1989 61.9043 28.1989V26.1989ZM59.3543 25.6239C58.6758 25.2427 58.1666 24.7228 57.8078 24.0505L56.0434 24.9922C56.5842 26.0054 57.3676 26.8018 58.3747 27.3676L59.3543 25.6239ZM57.8089 24.0525C57.4475 23.3714 57.2509 22.5548 57.2509 21.5739H55.2509C55.2509 22.8278 55.5041 23.9761 56.0423 24.9901L57.8089 24.0525ZM57.2509 21.5739C57.2509 20.5927 57.4475 19.7795 57.8078 19.1044L56.0434 18.1627C55.5041 19.1732 55.2509 20.3201 55.2509 21.5739H57.2509ZM57.8089 19.1023C58.1677 18.4263 58.6756 17.9084 59.3506 17.533L58.3785 15.7852C57.3678 16.3473 56.5831 17.1457 56.0423 18.1647L57.8089 19.1023ZM59.3543 17.5309C60.0174 17.1584 60.8539 16.9489 61.9043 16.9489V14.9489C60.5872 14.9489 59.3972 15.2128 58.3747 15.7873L59.3543 17.5309ZM61.9043 16.9489C62.8543 16.9489 63.6211 17.121 64.2362 17.4268L65.1263 15.6357C64.179 15.1649 63.0944 14.9489 61.9043 14.9489V16.9489ZM64.2428 17.43C64.8677 17.7349 65.3276 18.153 65.6531 18.686L67.36 17.6436C66.8238 16.7656 66.0669 16.0946 65.1198 15.6325L64.2428 17.43ZM65.6547 18.6885C65.9758 19.2108 66.156 19.8494 66.16 20.6414L68.16 20.6314C68.1545 19.5294 67.899 18.5202 67.3584 17.641L65.6547 18.6885ZM67.16 19.6364H63.5236V21.6364H67.16V19.6364ZM64.5195 20.5458C64.4553 19.8396 64.2392 19.1615 63.7564 18.646L62.2966 20.0131C62.3725 20.0941 62.4878 20.2873 62.5277 20.7269L64.5195 20.5458ZM63.7674 18.658C63.2898 18.1309 62.6583 17.875 61.9611 17.875V19.875C62.1352 19.875 62.2139 19.9221 62.2855 20.0011L63.7674 18.658ZM61.9611 17.875C61.4104 17.875 60.8931 18.0411 60.4523 18.3839L61.6802 19.9626C61.7507 19.9078 61.8301 19.875 61.9611 19.875V17.875ZM60.4615 18.3768C60.0094 18.7201 59.715 19.2009 59.5279 19.7247L61.4114 20.3974C61.5084 20.1258 61.6117 20.0147 61.6709 19.9697L60.4615 18.3768ZM59.5292 19.7212C59.3348 20.259 59.2566 20.8784 59.2566 21.5455H61.2566C61.2566 21.0193 61.3204 20.6492 61.4101 20.401L59.5292 19.7212ZM59.2566 21.5455C59.2566 22.2132 59.335 22.8331 59.5279 23.3733L61.4114 22.7006C61.3202 22.4453 61.2566 22.0709 61.2566 21.5455H59.2566ZM59.5292 23.3769C59.7171 23.8967 60.0099 24.37 60.4523 24.7141L61.6802 23.1354C61.6111 23.0817 61.5063 22.9632 61.4101 22.697L59.5292 23.3769ZM60.4615 24.7212C60.9023 25.0558 61.4163 25.2159 61.9611 25.2159V23.2159C61.8242 23.2159 61.7415 23.1819 61.6709 23.1283L60.4615 24.7212ZM61.9611 25.2159C62.4089 25.2159 62.8453 25.1112 63.24 24.8761L62.2164 23.1579C62.1659 23.188 62.091 23.2159 61.9611 23.2159V25.2159ZM63.2533 24.8681C63.6463 24.6256 63.9426 24.285 64.1525 23.8869L62.3834 22.954C62.3187 23.0768 62.2551 23.1339 62.2031 23.166L63.2533 24.8681ZM64.1494 23.8927C64.3722 23.4768 64.4846 23.0119 64.5208 22.5293L62.5264 22.3798C62.5058 22.6548 62.4477 22.8338 62.3865 22.9482L64.1494 23.8927ZM63.5236 23.4545H67.16V21.4545H63.5236V23.4545ZM66.1601 22.4398C66.1481 23.2532 65.9638 23.9143 65.6405 24.4568L67.3585 25.4807C67.8874 24.5933 68.1435 23.5782 68.1599 22.4693L66.1601 22.4398ZM65.642 24.4543C65.3195 24.9918 64.8631 25.413 64.2433 25.721L65.1334 27.512C66.0762 27.0435 66.8272 26.3662 67.357 25.4832L65.642 24.4543ZM64.2412 25.722C63.6332 26.026 62.8656 26.1989 61.9043 26.1989V28.1989C63.1021 28.1989 64.1906 27.9834 65.1356 27.5109L64.2412 25.722ZM69.9707 26.8295L69.5699 27.7458L69.5797 27.75L69.9707 26.8295ZM68.7207 25.7784L67.8809 26.3213L68.7207 25.7784ZM68.5716 22.4616L69.472 22.8967L69.4739 22.8927L68.5716 22.4616ZM69.4238 21.4176L70.0188 22.2214V22.2214L69.4238 21.4176ZM70.6951 20.7997L70.4155 19.8396L70.413 19.8404L70.6951 20.7997ZM72.2718 20.5227L72.3473 21.5199L72.3491 21.5197L72.2718 20.5227ZM73.742 20.3523L73.9187 21.3366L73.9286 21.3347L73.742 20.3523ZM74.5517 20.0611L75.148 20.8638L75.1553 20.8584L75.1625 20.8529L74.5517 20.0611ZM74.4735 18.875L73.9025 19.6959V19.6959L74.4735 18.875ZM72.7193 18.8963L73.2894 19.7179L73.2927 19.7155L72.7193 18.8963ZM72.3002 19.642V20.642H73.1693L73.2905 19.7815L72.3002 19.642ZM68.6923 19.642L67.6948 19.5708L67.6183 20.642H68.6923V19.642ZM69.3244 17.8097L68.4945 17.2517L68.4934 17.2533L69.3244 17.8097ZM70.9792 16.4602L71.4002 17.3673L71.405 17.365L70.9792 16.4602ZM75.7946 16.2259L75.5092 17.1843L75.516 17.1863L75.7946 16.2259ZM77.3784 16.9858L76.7784 17.7858L76.784 17.79L77.3784 16.9858ZM78.3727 18.1222L77.486 18.5848L77.4922 18.5963L78.3727 18.1222ZM78.7207 27V28H79.7207V27H78.7207ZM75.0559 27H74.0559V28H75.0559V27ZM75.0559 25.4659H76.0559V24.4659H75.0559V25.4659ZM74.9707 25.4659V24.4659H74.3715L74.0889 24.9943L74.9707 25.4659ZM74.1752 26.4531L73.5491 25.6734L73.5433 25.6781L74.1752 26.4531ZM73.117 27L72.8423 26.0385L72.8392 26.0394L73.117 27ZM73.9338 24.5142L73.5126 23.6072L73.5064 23.6101L73.9338 24.5142ZM74.5801 23.9815L73.7663 23.4003V23.4003L74.5801 23.9815ZM74.8287 22.2273H75.8287V20.7377L74.45 21.3017L74.8287 22.2273ZM74.4949 22.348L74.1901 21.3955L74.1786 21.3993L74.4949 22.348ZM74.1255 22.4545L73.883 21.4844L73.8746 21.4865L74.1255 22.4545ZM73.7136 22.5469L73.5236 21.5651L73.5175 21.5663L73.7136 22.5469ZM73.2662 22.625L73.1164 21.6363L73.1118 21.637L73.2662 22.625ZM72.5204 22.8594L73.0024 23.7356L73.0097 23.7315L72.5204 22.8594ZM72.0943 23.25L71.239 22.7317L71.2344 22.7395L72.0943 23.25ZM72.2789 24.4574L72.8818 23.6595L72.2789 24.4574ZM71.8173 26.1705C71.2296 26.1705 70.7512 26.0746 70.3617 25.9091L69.5797 27.75C70.2603 28.039 71.0129 28.1705 71.8173 28.1705V26.1705ZM70.3715 25.9134C70.014 25.757 69.7529 25.5331 69.5605 25.2355L67.8809 26.3213C68.2946 26.9612 68.8668 27.4381 69.5699 27.7457L70.3715 25.9134ZM69.5605 25.2355C69.389 24.9703 69.2662 24.577 69.2662 23.9886H67.2662C67.2662 24.8491 67.4463 25.6491 67.8809 26.3213L69.5605 25.2355ZM69.2662 23.9886C69.2662 23.5026 69.3494 23.1504 69.472 22.8967L67.6711 22.0266C67.3865 22.6157 67.2662 23.2815 67.2662 23.9886H69.2662ZM69.4739 22.8927C69.61 22.6078 69.7911 22.3899 70.0188 22.2214L68.8288 20.6139C68.3274 20.9851 67.9403 21.4632 67.6693 22.0305L69.4739 22.8927ZM70.0188 22.2214C70.2793 22.0285 70.5946 21.8716 70.9773 21.7591L70.413 19.8404C69.8297 20.0119 69.2976 20.2669 68.8288 20.6139L70.0188 22.2214ZM70.9748 21.7598C71.3889 21.6392 71.8454 21.5578 72.3473 21.5199L72.1964 19.5256C71.5714 19.5728 70.9767 19.6761 70.4155 19.8396L70.9748 21.7598ZM72.3491 21.5197C72.9753 21.4712 73.5025 21.4112 73.9187 21.3365L73.5653 19.368C73.2429 19.4259 72.79 19.4796 72.1946 19.5257L72.3491 21.5197ZM73.9286 21.3347C74.3461 21.2554 74.7974 21.1242 75.148 20.8638L73.9553 19.2583C73.9752 19.2436 73.9622 19.258 73.8865 19.2852C73.8141 19.3113 73.7065 19.3412 73.5555 19.3698L73.9286 21.3347ZM75.1625 20.8529C75.5723 20.5367 75.8002 20.0768 75.8002 19.5568H73.8002C73.8002 19.525 73.8075 19.4652 73.8412 19.397C73.8747 19.3289 73.9172 19.2876 73.9409 19.2693L75.1625 20.8529ZM75.8002 19.5568V19.5284H73.8002V19.5568H75.8002ZM75.8002 19.5284C75.8002 18.9443 75.5528 18.4076 75.0446 18.0541L73.9025 19.6959C73.8866 19.6849 73.8511 19.6531 73.8241 19.5992C73.7985 19.5479 73.8002 19.5158 73.8002 19.5284H75.8002ZM75.0446 18.0541C74.6172 17.7567 74.1226 17.6477 73.6355 17.6477V19.6477C73.8302 19.6477 73.8943 19.6902 73.9025 19.6959L75.0446 18.0541ZM73.6355 17.6477C73.1164 17.6477 72.594 17.7634 72.1458 18.0771L73.2927 19.7155C73.3181 19.6978 73.4065 19.6477 73.6355 19.6477V17.6477ZM72.1492 18.0747C71.6425 18.4263 71.3877 18.9509 71.31 19.5026L73.2905 19.7815C73.3 19.7136 73.3138 19.6907 73.3123 19.6933C73.3116 19.6946 73.3087 19.6994 73.3031 19.7055C73.2975 19.7116 73.2923 19.7158 73.2894 19.7179L72.1492 18.0747ZM72.3002 18.642H68.6923V20.642H72.3002V18.642ZM69.6898 19.7133C69.7246 19.226 69.8768 18.782 70.1554 18.366L68.4934 17.2533C68.0238 17.9547 67.7547 18.7324 67.6948 19.5708L69.6898 19.7133ZM70.1543 18.3676C70.4144 17.9806 70.8118 17.6403 71.4002 17.3673L70.5583 15.5531C69.6978 15.9525 68.9919 16.5118 68.4945 17.2517L70.1543 18.3676ZM71.405 17.365C71.9578 17.1049 72.7058 16.9489 73.6923 16.9489V14.9489C72.5102 14.9489 71.4495 15.1337 70.5534 15.5554L71.405 17.365ZM73.6923 16.9489C74.3962 16.9489 74.9984 17.0322 75.5092 17.1843L76.0799 15.2674C75.3502 15.0502 74.5509 14.9489 73.6923 14.9489V16.9489ZM75.516 17.1863C76.0414 17.3387 76.4555 17.5436 76.7784 17.7858L77.9784 16.1858C77.4301 15.7746 76.7883 15.4729 76.0732 15.2654L75.516 17.1863ZM76.784 17.79C77.1102 18.0311 77.336 18.297 77.4861 18.5847L79.2593 17.6596C78.9549 17.0761 78.5178 16.5844 77.9728 16.1816L76.784 17.79ZM77.4922 18.5963C77.6429 18.8762 77.7207 19.1812 77.7207 19.5284H79.7207C79.7207 18.8624 79.5665 18.2299 79.2532 17.6481L77.4922 18.5963ZM77.7207 19.5284V27H79.7207V19.5284H77.7207ZM78.7207 26H75.0559V28H78.7207V26ZM76.0559 27V25.4659H74.0559V27H76.0559ZM75.0559 24.4659H74.9707V26.4659H75.0559V24.4659ZM74.0889 24.9943C73.9251 25.3005 73.7417 25.5187 73.5491 25.6734L74.8014 27.2328C75.2338 26.8856 75.5807 26.4457 75.8525 25.9376L74.0889 24.9943ZM73.5433 25.6781C73.3451 25.8397 73.1151 25.9605 72.8423 26.0385L73.3917 27.9615C73.9144 27.8122 74.3899 27.5684 74.8072 27.2281L73.5433 25.6781ZM72.8392 26.0394C72.5494 26.1232 72.2112 26.1705 71.8173 26.1705V28.1705C72.3703 28.1705 72.8986 28.1041 73.3948 27.9606L72.8392 26.0394ZM73.0957 25.6989C73.5364 25.6989 73.9623 25.6068 74.3612 25.4183L73.5064 23.6101C73.3844 23.6678 73.2516 23.6989 73.0957 23.6989V25.6989ZM74.3549 25.4212C74.7727 25.2272 75.125 24.9392 75.3938 24.5628L73.7663 23.4003C73.7038 23.4879 73.6251 23.555 73.5127 23.6072L74.3549 25.4212ZM75.3938 24.5628C75.6995 24.1348 75.8287 23.6413 75.8287 23.1364H73.8287C73.8287 23.2943 73.7921 23.3643 73.7663 23.4003L75.3938 24.5628ZM75.8287 23.1364V22.2273H73.8287V23.1364H75.8287ZM74.45 21.3017C74.3725 21.3335 74.286 21.3649 74.1901 21.3956L74.7996 23.3004C74.9404 23.2554 75.0765 23.2063 75.2073 23.1528L74.45 21.3017ZM74.1786 21.3993C74.0924 21.4281 73.9941 21.4566 73.883 21.4844L74.3681 23.4247C74.5221 23.3862 74.6701 23.3437 74.8111 23.2967L74.1786 21.3993ZM73.8746 21.4865C73.7693 21.5138 73.6525 21.5401 73.5236 21.5651L73.9036 23.5287C74.0682 23.4968 74.2261 23.4615 74.3765 23.4225L73.8746 21.4865ZM73.5175 21.5663C73.3921 21.5914 73.2585 21.6147 73.1164 21.6363L73.416 23.6137C73.5863 23.5879 73.751 23.5592 73.9097 23.5275L73.5175 21.5663ZM73.1118 21.637C72.7324 21.6963 72.3602 21.8026 72.0312 21.9872L73.0097 23.7315C73.0689 23.6983 73.1938 23.6484 73.4205 23.613L73.1118 21.637ZM72.0385 21.9832C71.7237 22.1563 71.4401 22.4001 71.2391 22.7317L72.9495 23.7683C72.9451 23.7756 72.9426 23.7768 72.9476 23.7723C72.9531 23.7672 72.9692 23.7538 73.0023 23.7356L72.0385 21.9832ZM71.2344 22.7395C71.0459 23.057 70.9593 23.4062 70.9593 23.7614H72.9593C72.9593 23.7464 72.961 23.7427 72.96 23.7466C72.9595 23.7483 72.9587 23.7508 72.9575 23.7537C72.9563 23.7566 72.9551 23.759 72.9541 23.7605L71.2344 22.7395ZM70.9593 23.7614C70.9593 24.3297 71.1768 24.878 71.6761 25.2553L72.8818 23.6595C72.8892 23.6651 72.9015 23.6758 72.9149 23.6924C72.9286 23.7091 72.9398 23.7274 72.948 23.7453C72.965 23.7824 72.9593 23.7954 72.9593 23.7614H70.9593ZM71.6761 25.2553C72.1011 25.5763 72.6001 25.6989 73.0957 25.6989V23.6989C72.9284 23.6989 72.883 23.6604 72.8818 23.6595L71.6761 25.2553ZM80.7076 27H79.7076V28H80.7076V27ZM80.7076 24.8409L79.9403 24.1996L79.7076 24.478V24.8409H80.7076ZM85.4803 19.1307L86.2476 19.772L86.4803 19.4936V19.1307H85.4803ZM85.4803 19.0739H86.4803V18.0739H85.4803V19.0739ZM80.878 19.0739H79.878V20.0739H80.878V19.0739ZM80.878 16.0909V15.0909H79.878V16.0909H80.878ZM90.111 16.0909H91.111V15.0909H90.111V16.0909ZM90.111 18.4773L90.8946 19.0985L91.111 18.8256V18.4773H90.111ZM85.7644 23.9602L84.9808 23.339L84.7644 23.6119V23.9602H85.7644ZM85.7644 24.017H84.7644V25.017H85.7644V24.017ZM90.2814 24.017H91.2814V23.017H90.2814V24.017ZM90.2814 27V28H91.2814V27H90.2814ZM81.7076 27V24.8409H79.7076V27H81.7076ZM81.4748 25.4822L86.2476 19.772L84.713 18.4894L79.9403 24.1996L81.4748 25.4822ZM86.4803 19.1307V19.0739H84.4803V19.1307H86.4803ZM85.4803 18.0739H80.878V20.0739H85.4803V18.0739ZM81.878 19.0739V16.0909H79.878V19.0739H81.878ZM80.878 17.0909H90.111V15.0909H80.878V17.0909ZM89.111 16.0909V18.4773H91.111V16.0909H89.111ZM89.3273 17.856L84.9808 23.339L86.548 24.5814L90.8946 19.0985L89.3273 17.856ZM84.7644 23.9602V24.017H86.7644V23.9602H84.7644ZM85.7644 25.017H90.2814V23.017H85.7644V25.017ZM89.2814 24.017V27H91.2814V24.017H89.2814ZM90.2814 26H80.7076V28H90.2814V26ZM94.3528 26.4957L93.863 27.3676L93.8667 27.3697L94.3528 26.4957ZM92.4139 24.5213L91.5306 24.9901L91.5317 24.9922L92.4139 24.5213ZM92.4139 18.6335L93.2961 19.1044L93.2972 19.1023L92.4139 18.6335ZM94.3528 16.6591L94.8389 17.533L94.8426 17.5309L94.3528 16.6591ZM100.432 16.6591L99.9426 17.5309L99.9463 17.533L100.432 16.6591ZM102.371 18.6335L101.488 19.1023L101.489 19.1044L102.371 18.6335ZM102.371 24.5213L103.253 24.9922L103.255 24.9901L102.371 24.5213ZM100.432 26.4957L100.918 27.3697L100.922 27.3676L100.432 26.4957ZM98.2804 23.9673L98.958 24.7027V24.7027L98.2804 23.9673ZM98.8414 23.0156L99.7934 23.322V23.322L98.8414 23.0156ZM98.8414 20.0753L97.8895 20.3816L97.8906 20.3849L98.8414 20.0753ZM98.2804 19.1236L98.958 18.3882V18.3882L98.2804 19.1236ZM95.9437 20.0753L96.8946 20.3849L96.8956 20.3816L95.9437 20.0753ZM95.9437 23.0156L96.8956 22.7093L95.9437 23.0156ZM97.3926 26.1989C96.3406 26.1989 95.5028 25.9911 94.8389 25.6218L93.8667 27.3697C94.8885 27.9379 96.0771 28.1989 97.3926 28.1989V26.1989ZM94.8426 25.6239C94.1641 25.2427 93.6549 24.7228 93.2961 24.0505L91.5317 24.9922C92.0725 26.0054 92.8559 26.8018 93.863 27.3676L94.8426 25.6239ZM93.2972 24.0525C92.9357 23.3714 92.7392 22.5548 92.7392 21.5739H90.7392C90.7392 22.8278 90.9924 23.9761 91.5306 24.9901L93.2972 24.0525ZM92.7392 21.5739C92.7392 20.5927 92.9358 19.7795 93.2961 19.1044L91.5317 18.1627C90.9924 19.1732 90.7392 20.3201 90.7392 21.5739H92.7392ZM93.2972 19.1023C93.656 18.4263 94.1639 17.9084 94.8389 17.533L93.8667 15.7852C92.8561 16.3473 92.0714 17.1457 91.5306 18.1647L93.2972 19.1023ZM94.8426 17.5309C95.5057 17.1584 96.3422 16.9489 97.3926 16.9489V14.9489C96.0755 14.9489 94.8855 15.2128 93.863 15.7873L94.8426 17.5309ZM97.3926 16.9489C98.443 16.9489 99.2794 17.1584 99.9426 17.5309L100.922 15.7873C99.8997 15.2128 98.7096 14.9489 97.3926 14.9489V16.9489ZM99.9463 17.533C100.621 17.9084 101.129 18.4263 101.488 19.1023L103.255 18.1647C102.714 17.1457 101.929 16.3473 100.918 15.7852L99.9463 17.533ZM101.489 19.1044C101.849 19.7795 102.046 20.5927 102.046 21.5739H104.046C104.046 20.3201 103.793 19.1732 103.253 18.1627L101.489 19.1044ZM102.046 21.5739C102.046 22.5548 101.849 23.3714 101.488 24.0525L103.255 24.9901C103.793 23.9761 104.046 22.8278 104.046 21.5739H102.046ZM101.489 24.0505C101.13 24.7228 100.621 25.2427 99.9426 25.6239L100.922 27.3676C101.929 26.8018 102.713 26.0054 103.253 24.9922L101.489 24.0505ZM99.9463 25.6218C99.2824 25.9911 98.4445 26.1989 97.3926 26.1989V28.1989C98.7081 28.1989 99.8967 27.9379 100.918 27.3697L99.9463 25.6218ZM97.421 25.3011C98.0009 25.3011 98.53 25.0971 98.958 24.7027L97.6027 23.232C97.5478 23.2826 97.5039 23.3011 97.421 23.3011V25.3011ZM98.958 24.7027C99.3605 24.3318 99.6242 23.8476 99.7934 23.322L97.8895 22.7093C97.7935 23.0075 97.6832 23.1578 97.6027 23.232L98.958 24.7027ZM99.7934 23.322C99.966 22.7856 100.04 22.187 100.04 21.5455H98.0403C98.0403 22.0402 97.9821 22.4218 97.8895 22.7093L99.7934 23.322ZM100.04 21.5455C100.04 20.9006 99.9663 20.3002 99.7923 19.7657L97.8906 20.3849C97.9817 20.6648 98.0403 21.0445 98.0403 21.5455H100.04ZM99.7934 19.7689C99.6242 19.2433 99.3605 18.7591 98.958 18.3882L97.6027 19.8589C97.6832 19.9331 97.7935 20.0834 97.8895 20.3816L99.7934 19.7689ZM98.958 18.3882C98.53 17.9938 98.0009 17.7898 97.421 17.7898V19.7898C97.5039 19.7898 97.5478 19.8083 97.6027 19.8589L98.958 18.3882ZM97.421 17.7898C96.838 17.7898 96.2981 17.9829 95.8555 18.3754L97.1825 19.8718C97.2418 19.8192 97.3032 19.7898 97.421 19.7898V17.7898ZM95.8555 18.3754C95.437 18.7465 95.1636 19.235 94.9918 19.7689L96.8956 20.3816C96.9889 20.0917 97.0991 19.9458 97.1825 19.8718L95.8555 18.3754ZM94.9928 19.7657C94.8188 20.3002 94.7449 20.9006 94.7449 21.5455H96.7449C96.7449 21.0445 96.8035 20.6648 96.8946 20.3849L94.9928 19.7657ZM94.7449 21.5455C94.7449 22.187 94.8192 22.7856 94.9918 23.322L96.8956 22.7093C96.8031 22.4218 96.7449 22.0402 96.7449 21.5455H94.7449ZM94.9918 23.322C95.1636 23.8559 95.437 24.3444 95.8555 24.7155L97.1825 23.2191C97.0991 23.1452 96.9889 22.9992 96.8956 22.7093L94.9918 23.322ZM95.8555 24.7155C96.2981 25.108 96.838 25.3011 97.421 25.3011V23.3011C97.3032 23.3011 97.2418 23.2717 97.1825 23.2191L95.8555 24.7155ZM108.557 20.8636L107.557 20.8505V20.8636H108.557ZM108.557 27V28H109.557V27H108.557ZM104.637 27H103.637V28H104.637V27ZM104.637 16.0909V15.0909H103.637V16.0909H104.637ZM108.358 16.0909H109.358V15.0909H108.358V16.0909ZM108.358 18.1648H107.358V19.1648H108.358V18.1648ZM108.472 18.1648V19.1648H109.187L109.418 18.4888L108.472 18.1648ZM109.722 16.5384L109.175 15.7013L109.172 15.7033L109.722 16.5384ZM113.834 16.4815L113.304 17.3296L113.313 17.3346L113.834 16.4815ZM115.162 17.9304L114.271 18.3831L114.274 18.3885L115.162 17.9304ZM115.631 20.0398L114.631 20.0338V20.0398H115.631ZM115.631 27V28H116.631V27H115.631ZM111.711 27H110.711V28H111.711V27ZM111.711 20.8636L110.711 20.8549V20.8636H111.711ZM111.299 19.5923L110.553 20.2581L110.558 20.2644L111.299 19.5923ZM109.303 19.3438L109.805 20.2088L109.81 20.2057L109.303 19.3438ZM108.756 19.9403L109.651 20.3876L109.654 20.381L108.756 19.9403ZM107.557 20.8636V27H109.557V20.8636H107.557ZM108.557 26H104.637V28H108.557V26ZM105.637 27V16.0909H103.637V27H105.637ZM104.637 17.0909H108.358V15.0909H104.637V17.0909ZM107.358 16.0909V18.1648H109.358V16.0909H107.358ZM108.358 19.1648H108.472V17.1648H108.358V19.1648ZM109.418 18.4888C109.585 18.0018 109.865 17.6416 110.272 17.3734L109.172 15.7033C108.386 16.221 107.833 16.9451 107.526 17.8408L109.418 18.4888ZM110.269 17.3754C110.69 17.1006 111.196 16.9489 111.824 16.9489V14.9489C110.853 14.9489 109.957 15.1901 109.175 15.7013L110.269 17.3754ZM111.824 16.9489C112.438 16.9489 112.918 17.0881 113.304 17.3295L114.364 15.6335C113.614 15.1647 112.755 14.9489 111.824 14.9489V16.9489ZM113.313 17.3346C113.723 17.5856 114.04 17.9279 114.271 18.3831L116.054 17.4777C115.66 16.7019 115.092 16.0782 114.356 15.6284L113.313 17.3346ZM114.274 18.3885C114.507 18.8414 114.635 19.3814 114.631 20.0338L116.631 20.0458C116.637 19.1167 116.452 18.2505 116.051 17.4723L114.274 18.3885ZM114.631 20.0398V27H116.631V20.0398H114.631ZM115.631 26H111.711V28H115.631V26ZM112.711 27V20.8636H110.711V27H112.711ZM112.711 20.8724C112.717 20.1585 112.533 19.4646 112.039 18.9202L110.558 20.2644C110.623 20.3356 110.714 20.4892 110.711 20.8549L112.711 20.8724ZM112.045 18.9265C111.544 18.3649 110.865 18.1307 110.148 18.1307V20.1307C110.416 20.1307 110.505 20.2042 110.553 20.2581L112.045 18.9265ZM110.148 18.1307C109.675 18.1307 109.213 18.2366 108.796 18.4818L109.81 20.2057C109.876 20.1668 109.978 20.1307 110.148 20.1307V18.1307ZM108.801 18.4787C108.383 18.7213 108.068 19.073 107.859 19.4997L109.654 20.381C109.7 20.2869 109.75 20.2408 109.805 20.2088L108.801 18.4787ZM107.862 19.4931C107.651 19.914 107.564 20.3778 107.557 20.8505L109.557 20.8768C109.561 20.6298 109.605 20.4781 109.651 20.3876L107.862 19.4931ZM119.782 26.5312L119.31 27.4124L119.316 27.4155L119.782 26.5312ZM117.844 24.5994L116.961 25.0703L116.965 25.0762L117.844 24.5994ZM117.851 18.6193L118.731 19.094L117.851 18.6193ZM119.775 16.652L120.268 17.5224L119.775 16.652ZM124.946 16.3324L125.303 15.3985L124.946 16.3324ZM126.657 17.4474L125.94 18.144L125.943 18.1475L126.657 17.4474ZM127.751 19.2088L126.813 19.5557V19.5557L127.751 19.2088ZM128.135 22.4545V23.4545H129.135V22.4545H128.135ZM118.39 22.4545H117.39V23.4545H118.39V22.4545ZM118.39 20.2955V19.2955H117.39V20.2955H118.39ZM124.527 20.2955V21.2955H125.542L125.527 20.2803L124.527 20.2955ZM124.285 19.4716L123.438 20.0031L123.444 20.0128L123.451 20.0224L124.285 19.4716ZM123.667 18.9105L123.194 19.7915L123.204 19.7967L123.214 19.8017L123.667 18.9105ZM121.92 18.9105L122.367 19.8049L122.374 19.8018L122.38 19.7985L121.92 18.9105ZM121.281 19.4645L120.454 18.9021L120.446 18.9136L121.281 19.4645ZM121.032 20.2955L120.033 20.2656L120.032 20.2805V20.2955H121.032ZM121.253 23.5625L120.371 24.0339V24.0339L121.253 23.5625ZM121.885 24.2088L121.39 25.078L121.885 24.2088ZM123.618 24.3295L123.301 23.3808L123.295 23.3829L123.618 24.3295ZM124.2 24.0028L124.862 24.7527L124.868 24.7473L124.874 24.7418L124.2 24.0028ZM124.555 23.4773V22.4773H123.86L123.618 23.1285L124.555 23.4773ZM128.135 23.4773L129.122 23.6377L129.31 22.4773H128.135V23.4773ZM127.261 25.4517L128.031 26.09L128.034 26.0867L127.261 25.4517ZM125.436 26.7443L125.809 27.672L125.812 27.6708L125.436 26.7443ZM122.794 26.1989C121.756 26.1989 120.92 26.001 120.249 25.647L119.316 27.4155C120.331 27.9517 121.502 28.1989 122.794 28.1989V26.1989ZM120.255 25.6501C119.59 25.2928 119.084 24.7897 118.723 24.1227L116.965 25.0762C117.512 26.0853 118.299 26.87 119.31 27.4124L120.255 25.6501ZM118.726 24.1286C118.369 23.4602 118.169 22.621 118.169 21.5739H116.169C116.169 22.8752 116.418 24.053 116.961 25.0703L118.726 24.1286ZM118.169 21.5739C118.169 20.5833 118.368 19.7671 118.731 19.094L116.971 18.1446C116.424 19.1571 116.169 20.3106 116.169 21.5739H118.169ZM118.731 19.094C119.097 18.416 119.604 17.8978 120.268 17.5224L119.283 15.7816C118.289 16.3437 117.514 17.1371 116.971 18.1446L118.731 19.094ZM120.268 17.5224C120.921 17.153 121.722 16.9489 122.709 16.9489V14.9489C121.441 14.9489 120.287 15.2135 119.283 15.7816L120.268 17.5224ZM122.709 16.9489C123.429 16.9489 124.051 17.0604 124.588 17.2662L125.303 15.3985C124.506 15.093 123.636 14.9489 122.709 14.9489V16.9489ZM124.588 17.2662C125.127 17.4727 125.573 17.766 125.94 18.144L127.375 16.7509C126.795 16.1535 126.1 15.7035 125.303 15.3985L124.588 17.2662ZM125.943 18.1475C126.31 18.5211 126.602 18.9846 126.813 19.5557L128.689 18.8619C128.389 18.0504 127.952 17.3397 127.372 16.7474L125.943 18.1475ZM126.813 19.5557C127.021 20.1183 127.135 20.777 127.135 21.5455H129.135C129.135 20.5809 128.992 19.6819 128.689 18.8619L126.813 19.5557ZM127.135 21.5455V22.4545H129.135V21.5455H127.135ZM128.135 21.4545H118.39V23.4545H128.135V21.4545ZM119.39 22.4545V20.2955H117.39V22.4545H119.39ZM118.39 21.2955H124.527V19.2955H118.39V21.2955ZM125.527 20.2803C125.519 19.7973 125.392 19.3326 125.12 18.9207L123.451 20.0224C123.491 20.084 123.525 20.1687 123.527 20.3106L125.527 20.2803ZM125.132 18.9401C124.882 18.5414 124.539 18.2319 124.121 18.0193L123.214 19.8017C123.317 19.8543 123.385 19.9189 123.438 20.0031L125.132 18.9401ZM124.141 18.0295C123.722 17.8047 123.265 17.7045 122.794 17.7045V19.7045C122.977 19.7045 123.102 19.7417 123.194 19.7915L124.141 18.0295ZM122.794 17.7045C122.327 17.7045 121.877 17.807 121.46 18.0225L122.38 19.7985C122.494 19.7394 122.626 19.7045 122.794 19.7045V17.7045ZM121.473 18.0161C121.061 18.2223 120.715 18.519 120.454 18.9022L122.108 20.0268C122.169 19.9365 122.25 19.8639 122.367 19.8049L121.473 18.0161ZM120.446 18.9136C120.176 19.3233 120.047 19.7855 120.033 20.2656L122.032 20.3253C122.037 20.171 122.074 20.0792 122.116 20.0153L120.446 18.9136ZM120.032 20.2955V22.625H122.032V20.2955H120.032ZM120.032 22.625C120.032 23.1189 120.137 23.5969 120.371 24.0339L122.135 23.0911C122.075 22.9789 122.032 22.8318 122.032 22.625H120.032ZM120.371 24.0339C120.608 24.4776 120.954 24.8298 121.39 25.078L122.379 23.3396C122.266 23.2753 122.191 23.1967 122.135 23.0911L120.371 24.0339ZM121.39 25.078C121.846 25.3375 122.357 25.4432 122.879 25.4432V23.4432C122.625 23.4432 122.472 23.3926 122.379 23.3396L121.39 25.078ZM122.879 25.4432C123.243 25.4432 123.6 25.3921 123.94 25.2762L123.295 23.3829C123.191 23.4185 123.055 23.4432 122.879 23.4432V25.4432ZM123.934 25.2782C124.274 25.165 124.589 24.9933 124.862 24.7527L123.538 23.253C123.489 23.2965 123.416 23.3426 123.301 23.3809L123.934 25.2782ZM124.874 24.7418C125.152 24.4881 125.361 24.1792 125.492 23.826L123.618 23.1285C123.598 23.1825 123.57 23.224 123.526 23.2639L124.874 24.7418ZM124.555 24.4773H128.135V22.4773H124.555V24.4773ZM127.148 23.3169C127.051 23.9111 126.829 24.4029 126.489 24.8167L128.034 26.0867C128.612 25.3831 128.972 24.5585 129.122 23.6377L127.148 23.3169ZM126.491 24.8135C126.151 25.2239 125.685 25.5636 125.06 25.8179L125.812 27.6708C126.702 27.3095 127.453 26.7874 128.031 26.0899L126.491 24.8135ZM125.062 25.8166C124.453 26.0618 123.704 26.1989 122.794 26.1989V28.1989C123.9 28.1989 124.913 28.0328 125.809 27.672L125.062 25.8166Z" fill="black" mask="url(#path-3-outside-1_54_91)"/>
<defs>
<filter id="filter0_i_54_91" x="16.7427" y="11.375" width="111.392" height="23.9431" filterUnits="userSpaceOnUse" color-interpolation-filters="sRGB">
<feFlood flood-opacity="0" result="BackgroundImageFix"/>
<feBlend mode="normal" in="SourceGraphic" in2="BackgroundImageFix" result="shape"/>
<feColorMatrix in="SourceAlpha" type="matrix" values="0 0 0 0 0 0 0 0 0 0 0 0 0 0 0 0 0 0 127 0" result="hardAlpha"/>
<feOffset dy="4"/>
<feGaussianBlur stdDeviation="2"/>
<feComposite in2="hardAlpha" operator="arithmetic" k2="-1" k3="1"/>
<feColorMatrix type="matrix" values="0 0 0 0 0 0 0 0 0 0 0 0 0 0 0 0 0 0 0.25 0"/>
<feBlend mode="normal" in2="shape" result="effect1_innerShadow_54_91"/>
</filter>
</defs>
</svg>
