<svg width="50" height="50" viewBox="0 0 50 50" fill="none" xmlns="http://www.w3.org/2000/svg">
<mask id="path-1-inside-1_317_5" fill="white">
<path d="M50 17.7891C50 16.6086 49.5934 15.4542 48.8285 14.5284C47.8555 13.3521 46.4074 12.6703 44.8813 12.6703H34.0823C33.8497 11.8308 33.3128 11.1181 32.5936 10.6625L32.5806 4.13711L32.5789 4.125C32.5513 2.80215 31.8175 1.59648 30.6541 0.968457C30.109 0.673926 29.5054 0.525879 28.9065 0.525879C28.2525 0.525879 27.5951 0.704785 27.0143 1.05547L27.0127 1.05303L20.6508 4.71885L20.6297 4.7335C19.0969 5.68857 18.1175 7.32061 17.989 9.12012L17.9857 9.18106V12.6736C15.9502 12.6834 13.9912 13.4416 12.4812 14.8051L1.86289 24.3959C0.657422 25.4852 0 27.0154 0 28.5864C0 29.1566 0.0862305 29.7352 0.266797 30.2965L5.32217 46.1815C5.94531 48.1422 7.76436 49.4739 9.82266 49.4739H32.2926C34.7543 49.4739 37.1217 48.5261 38.905 46.8291L45.4475 40.5974C46.2984 39.7855 46.876 38.7312 47.0989 37.576L47.1054 37.5386L49.9219 18.6856H49.9187C49.9708 18.3886 50 18.0885 50 17.7891ZM21.3863 9.32988C21.4449 8.63027 21.8272 7.99902 22.4212 7.62314L28.7392 3.98174L28.7651 3.96621C28.8091 3.93936 28.8546 3.92471 28.9066 3.92471C28.9506 3.92471 28.9929 3.93457 29.0352 3.95898H29.0368C29.123 4.00615 29.1768 4.09561 29.18 4.18994L29.1945 10.4794C28.3143 10.913 27.6456 11.707 27.3804 12.6703H23.8545V16.07H44.8812C45.1382 16.07 45.3888 16.1278 45.6149 16.2344L36.4708 24.7171C35.4978 25.5989 34.2287 26.0855 32.9173 26.0855H23.9261C23.6576 24.6423 22.6862 23.4496 21.3797 22.8696L21.3863 9.32988ZM14.7592 17.3278C15.6443 16.5282 16.793 16.0855 17.984 16.0718L17.9808 22.8005C16.5896 23.3489 15.5467 24.5821 15.2668 26.0856H5.06348L14.7592 17.3278ZM4.77549 33.2577L3.50469 29.2665C3.43965 29.0565 3.40713 28.8468 3.40547 28.6353H9.71689L10.3026 33.2577H4.77549ZM5.45234 35.3818H10.5712L11.0935 39.5203H6.77031L5.45234 35.3818ZM9.82266 46.075C9.24668 46.075 8.73574 45.7 8.56172 45.1516L7.44551 41.6469H11.3619L11.9217 46.075H9.82266ZM18.4494 46.075H14.0629L13.5031 41.6469H18.4494V46.075ZM18.4494 39.5203H13.2347L12.7124 35.3818H18.4494V39.5203ZM18.4494 33.2577H12.4438L11.8581 28.6353H18.4493L18.4494 33.2577ZM19.4143 27.078C18.7683 27.078 18.2443 26.5525 18.2443 25.909C18.2443 25.2622 18.7683 24.7399 19.4143 24.7399C20.0585 24.7399 20.5824 25.2622 20.5824 25.909C20.5825 26.5525 20.0586 27.078 19.4143 27.078ZM25.934 46.075H20.5744V41.6469H26.0446L25.934 46.075ZM26.0982 39.5203H20.5744V35.3818H26.2024L26.0982 39.5203ZM26.2545 33.2577H20.5744V28.6353H26.3717L26.2545 33.2577ZM32.8653 46.0465C32.675 46.0637 32.4829 46.075 32.2927 46.075H28.0591L28.1697 41.6469H33.1176L32.8653 46.0465ZM33.2395 39.5203H28.2232L28.3273 35.3818H33.4771L33.2395 39.5203ZM33.5991 33.2577H28.3812L28.4966 28.6353H32.9175C33.238 28.6353 33.5536 28.6083 33.8693 28.571L33.5991 33.2577ZM38.993 42.0505L36.5604 44.3665C36.2269 44.6839 35.8575 44.9565 35.4671 45.1907L35.7062 41.0384L39.2744 38.1715L38.993 42.0505ZM39.4859 35.2753L35.8722 38.1788L36.0982 34.2291L39.7755 31.2727L39.4859 35.2753ZM39.9854 28.3781L36.2626 31.3703L36.4677 27.7826C37.0827 27.471 37.6603 27.0805 38.1794 26.6111L40.2539 24.6863L39.9854 28.3781ZM43.7554 36.9454C43.6658 37.4002 43.4381 37.8151 43.1028 38.1372L41.2806 39.87L41.536 36.3522L44.1604 34.2437L43.7554 36.9454ZM44.6226 31.1489L41.7476 33.4578L42.0372 29.4544L45.262 26.8649L44.6226 31.1489ZM45.724 23.7661L42.2486 26.5606L42.5383 22.5679L46.4449 18.9427L45.724 23.7661Z"/>
</mask>
<path d="M50 17.7891C50 16.6086 49.5934 15.4542 48.8285 14.5284C47.8555 13.3521 46.4074 12.6703 44.8813 12.6703H34.0823C33.8497 11.8308 33.3128 11.1181 32.5936 10.6625L32.5806 4.13711L32.5789 4.125C32.5513 2.80215 31.8175 1.59648 30.6541 0.968457C30.109 0.673926 29.5054 0.525879 28.9065 0.525879C28.2525 0.525879 27.5951 0.704785 27.0143 1.05547L27.0127 1.05303L20.6508 4.71885L20.6297 4.7335C19.0969 5.68857 18.1175 7.32061 17.989 9.12012L17.9857 9.18106V12.6736C15.9502 12.6834 13.9912 13.4416 12.4812 14.8051L1.86289 24.3959C0.657422 25.4852 0 27.0154 0 28.5864C0 29.1566 0.0862305 29.7352 0.266797 30.2965L5.32217 46.1815C5.94531 48.1422 7.76436 49.4739 9.82266 49.4739H32.2926C34.7543 49.4739 37.1217 48.5261 38.905 46.8291L45.4475 40.5974C46.2984 39.7855 46.876 38.7312 47.0989 37.576L47.1054 37.5386L49.9219 18.6856H49.9187C49.9708 18.3886 50 18.0885 50 17.7891ZM21.3863 9.32988C21.4449 8.63027 21.8272 7.99902 22.4212 7.62314L28.7392 3.98174L28.7651 3.96621C28.8091 3.93936 28.8546 3.92471 28.9066 3.92471C28.9506 3.92471 28.9929 3.93457 29.0352 3.95898H29.0368C29.123 4.00615 29.1768 4.09561 29.18 4.18994L29.1945 10.4794C28.3143 10.913 27.6456 11.707 27.3804 12.6703H23.8545V16.07H44.8812C45.1382 16.07 45.3888 16.1278 45.6149 16.2344L36.4708 24.7171C35.4978 25.5989 34.2287 26.0855 32.9173 26.0855H23.9261C23.6576 24.6423 22.6862 23.4496 21.3797 22.8696L21.3863 9.32988ZM14.7592 17.3278C15.6443 16.5282 16.793 16.0855 17.984 16.0718L17.9808 22.8005C16.5896 23.3489 15.5467 24.5821 15.2668 26.0856H5.06348L14.7592 17.3278ZM4.77549 33.2577L3.50469 29.2665C3.43965 29.0565 3.40713 28.8468 3.40547 28.6353H9.71689L10.3026 33.2577H4.77549ZM5.45234 35.3818H10.5712L11.0935 39.5203H6.77031L5.45234 35.3818ZM9.82266 46.075C9.24668 46.075 8.73574 45.7 8.56172 45.1516L7.44551 41.6469H11.3619L11.9217 46.075H9.82266ZM18.4494 46.075H14.0629L13.5031 41.6469H18.4494V46.075ZM18.4494 39.5203H13.2347L12.7124 35.3818H18.4494V39.5203ZM18.4494 33.2577H12.4438L11.8581 28.6353H18.4493L18.4494 33.2577ZM19.4143 27.078C18.7683 27.078 18.2443 26.5525 18.2443 25.909C18.2443 25.2622 18.7683 24.7399 19.4143 24.7399C20.0585 24.7399 20.5824 25.2622 20.5824 25.909C20.5825 26.5525 20.0586 27.078 19.4143 27.078ZM25.934 46.075H20.5744V41.6469H26.0446L25.934 46.075ZM26.0982 39.5203H20.5744V35.3818H26.2024L26.0982 39.5203ZM26.2545 33.2577H20.5744V28.6353H26.3717L26.2545 33.2577ZM32.8653 46.0465C32.675 46.0637 32.4829 46.075 32.2927 46.075H28.0591L28.1697 41.6469H33.1176L32.8653 46.0465ZM33.2395 39.5203H28.2232L28.3273 35.3818H33.4771L33.2395 39.5203ZM33.5991 33.2577H28.3812L28.4966 28.6353H32.9175C33.238 28.6353 33.5536 28.6083 33.8693 28.571L33.5991 33.2577ZM38.993 42.0505L36.5604 44.3665C36.2269 44.6839 35.8575 44.9565 35.4671 45.1907L35.7062 41.0384L39.2744 38.1715L38.993 42.0505ZM39.4859 35.2753L35.8722 38.1788L36.0982 34.2291L39.7755 31.2727L39.4859 35.2753ZM39.9854 28.3781L36.2626 31.3703L36.4677 27.7826C37.0827 27.471 37.6603 27.0805 38.1794 26.6111L40.2539 24.6863L39.9854 28.3781ZM43.7554 36.9454C43.6658 37.4002 43.4381 37.8151 43.1028 38.1372L41.2806 39.87L41.536 36.3522L44.1604 34.2437L43.7554 36.9454ZM44.6226 31.1489L41.7476 33.4578L42.0372 29.4544L45.262 26.8649L44.6226 31.1489ZM45.724 23.7661L42.2486 26.5606L42.5383 22.5679L46.4449 18.9427L45.724 23.7661Z" fill="white" stroke="black" stroke-width="2" mask="url(#path-1-inside-1_317_5)"/>
</svg>
