<svg width="45" height="50" viewBox="0 0 45 50" fill="none" xmlns="http://www.w3.org/2000/svg">
<path d="M24.5422 4.72772L24.6625 5.05526H25.0115H32.3624C34.636 5.05526 36.4856 6.88822 36.4856 9.11051V22.2763H32.8624V9.11051V8.61051H32.3624H27.7392H27.2392V9.11051V15.4434H9.74639V9.11051V8.61051H9.24639H4.6232H4.1232V9.11051V43.2749V43.7749H4.6232H15.6812V47.3302H4.6232C2.34958 47.3302 0.5 45.4972 0.5 43.2749V9.11051C0.5 6.88822 2.34958 5.05526 4.6232 5.05526H11.9741H12.323L12.4434 4.72772C13.345 2.27426 15.7059 0.5 18.4928 0.5C21.2796 0.5 23.6406 2.27426 24.5422 4.72772ZM44.1324 46.2425L43.3154 45.829C43.4962 45.3458 43.5857 44.8275 43.5852 44.2635H43.5853L43.5851 44.254C43.579 43.9451 43.5397 43.6413 43.4685 43.3461L44.3313 43.0336C44.4343 43.4229 44.4914 43.8282 44.5 44.2496C44.5002 44.9776 44.3759 45.6359 44.1324 46.2425ZM39.2561 40.066L39.2517 40.0661C39.2294 40.0663 39.2065 40.0666 39.1831 40.0672L39.065 39.1841C39.1315 39.1815 39.1968 39.1798 39.2585 39.1792C40.5633 39.1798 41.7909 39.652 42.7381 40.4803L42.0699 41.0912C41.2949 40.436 40.3054 40.066 39.2561 40.066ZM39.2561 48.6132C40.0774 48.6132 40.8635 48.3872 41.5417 47.9701L42.108 48.6712C41.2688 49.2072 40.2851 49.5 39.2561 49.5C39.181 49.5 39.1061 49.4984 39.0314 49.4953L39.1553 48.6121C39.1889 48.6128 39.2225 48.6132 39.2561 48.6132ZM25.7297 38.9478C28.6258 38.9478 30.9609 41.2592 30.9609 44.0949C30.9609 46.9305 28.6258 49.2419 25.7297 49.2419C22.8335 49.2419 20.4984 46.9305 20.4984 44.0949C20.4984 41.2592 22.8335 38.9478 25.7297 38.9478ZM35.1444 45.683C35.414 46.487 35.9215 47.1924 36.5944 47.7107L36.1215 48.4774C35.2321 47.8243 34.5723 46.909 34.2442 45.8643L35.1444 45.683ZM34.2528 42.7879C34.5866 41.7453 35.2515 40.8334 36.1445 40.1851L36.6131 40.9542C35.9373 41.4689 35.426 42.1717 35.1519 42.9741L34.2528 42.7879ZM38.8993 25.9717C41.7955 25.9717 44.1306 28.2831 44.1306 31.1187C44.1306 33.9544 41.7955 36.2658 38.8993 36.2658C36.0032 36.2658 33.6681 33.9544 33.6681 31.1187C33.6681 28.2831 36.0032 25.9717 38.8993 25.9717ZM25.7297 25.9717C28.6258 25.9717 30.9609 28.2831 30.9609 31.1187C30.9609 33.9544 28.6258 36.2658 25.7297 36.2658C22.8335 36.2658 20.4984 33.9544 20.4984 31.1187C20.4984 28.2831 22.8335 25.9717 25.7297 25.9717ZM18.4928 4.05526C16.9523 4.05526 15.6812 5.29709 15.6812 6.83288C15.6812 8.36868 16.9523 9.61051 18.4928 9.61051C20.0333 9.61051 21.3044 8.36868 21.3044 6.83288C21.3044 5.29709 20.0333 4.05526 18.4928 4.05526Z" fill="white" stroke="black"/>
</svg>
