<svg width="52" height="52" viewBox="0 0 52 52" fill="none" xmlns="http://www.w3.org/2000/svg">
<path d="M12.8423 9.56358L12.8424 9.56336C13.7664 7.1323 14.6426 4.83701 15.6965 3.1447C16.7535 1.44743 17.8991 0.5 19.3179 0.5C20.7382 0.5 21.7434 1.30038 22.7645 2.12474L22.8055 2.15787C23.6468 2.83805 24.5319 3.55357 25.7143 3.55357C26.8967 3.55357 27.7818 2.83805 28.6231 2.15787L28.6643 2.1246L28.6643 2.12459C29.6839 1.30054 30.6914 0.5 32.1107 0.5C33.5537 0.5 34.7421 1.50043 35.8532 3.29517C36.9582 5.07997 37.8922 7.49755 38.8764 10.0479L38.8764 10.048C39.3057 11.1595 39.745 12.2797 40.1999 13.3462C36.0085 12.0279 31.0838 11.2964 25.7143 11.2964C20.3986 11.2964 15.5256 12.0223 11.3624 13.3166C11.8372 12.207 12.2832 11.0339 12.721 9.88258C12.7615 9.77604 12.8019 9.66968 12.8423 9.56358ZM12.4169 37.7321L12.3268 37.5211L12.108 37.4519C8.40485 36.2803 5.48779 34.686 3.50547 32.8522C1.52577 31.0209 0.5 28.9744 0.5 26.8714C0.5 23.5007 3.11197 20.3775 7.67557 18.0681C12.2162 15.7704 18.5635 14.3536 25.7143 14.3536C32.865 14.3536 39.2123 15.7707 43.753 18.0685C48.3166 20.378 50.9286 23.5012 50.9286 26.8714C50.9286 28.9716 49.902 31.0096 47.9216 32.8335C45.9385 34.6599 43.0212 36.2475 39.3204 37.4198L39.1017 37.4891L39.0116 37.7C37.6344 40.9246 35.9017 44.2507 33.7013 46.7643C31.5043 49.2739 28.8831 50.9286 25.7143 50.9286C22.5452 50.9286 19.9239 49.2806 17.7272 46.779C15.5268 44.2733 13.794 40.9554 12.4169 37.7321ZM39.5857 25.9714V25.8698L39.5461 25.7763C39.2995 25.1946 37.5106 22.1286 25.7143 22.1286C14.0363 22.1286 12.1514 25.1275 11.8778 25.8198L11.8429 25.9084V26.0036V27.8235L11.2409 27.7566L11.2332 27.7558L11.2255 27.7552L11.1857 28.2536C11.2255 27.7552 11.2253 27.7551 11.2252 27.7551L11.2248 27.7551L11.224 27.755L11.2223 27.7549L11.2179 27.7546L11.2057 27.7538C11.1962 27.7533 11.1838 27.7527 11.1687 27.7522C11.1385 27.7512 11.0975 27.7506 11.0478 27.7517C10.9488 27.754 10.812 27.7631 10.6549 27.7906C10.3465 27.8446 9.92377 27.9757 9.56456 28.3006L9.56452 28.3007C8.98834 28.8221 8.75714 29.6709 8.75714 30.6643C8.75714 32.4164 10.0529 33.8473 11.7781 34.0224L11.7788 34.0225L12.1104 34.0557L12.2272 34.3729L12.229 34.3775C14.1767 39.5065 16.2337 43.3608 18.4467 45.9406C20.6656 48.5272 23.0779 49.8714 25.7143 49.8714C28.3507 49.8714 30.7704 48.528 32.997 45.9417C35.2179 43.362 37.2828 39.5076 39.2317 34.3776L39.2335 34.3728L39.3509 34.054L39.6521 34.0223C39.6522 34.0223 39.6522 34.0223 39.6523 34.0223C41.3695 33.8423 42.6714 32.4136 42.6714 30.6643C42.6714 30.3012 42.6435 29.8575 42.5357 29.4311C42.4292 29.0097 42.2321 28.5549 41.8558 28.2291L41.8552 28.2285C41.4989 27.9213 41.0783 27.8105 40.7773 27.7701C40.623 27.7494 40.4888 27.7457 40.3918 27.7471C40.343 27.7478 40.3028 27.7499 40.2733 27.752C40.2585 27.753 40.2464 27.754 40.2371 27.7549L40.2253 27.756L40.221 27.7565L40.2193 27.7567L40.2185 27.7568L40.2182 27.7568C40.218 27.7568 40.2179 27.7568 40.275 28.2536L40.2178 27.7567L40.208 27.7581L39.5857 27.8422V25.9714Z" fill="white" stroke="black"/>
</svg>
